<svg width="917" height="859" viewBox="0 0 917 859" fill="none" xmlns="http://www.w3.org/2000/svg">
<path d="M667.039 597.912L718.029 483.096L795.657 448.065L916.69 501.819L839.91 674.684L667.039 597.912Z" fill="#F4F4F4"/>
<path opacity="0.05" d="M854.503 578.319L730.751 523.012C729.546 522.473 728.132 523.014 727.593 524.219L727.592 524.22C727.054 525.426 727.594 526.84 728.8 527.378L852.552 582.686C853.757 583.225 855.171 582.685 855.71 581.479L855.711 581.478C856.249 580.272 855.709 578.858 854.503 578.319Z" fill="#292A2E"/>
<path opacity="0.05" d="M844.106 603.144L720.354 547.836C719.148 547.297 717.734 547.838 717.195 549.043L717.195 549.044C716.656 550.25 717.197 551.664 718.402 552.203L842.154 607.51C843.36 608.049 844.774 607.509 845.313 606.303L845.313 606.302C845.852 605.096 845.312 603.682 844.106 603.144Z" fill="#292A2E"/>
<path opacity="0.05" d="M781.864 605.236L709.735 573.227C709.156 572.968 708.498 572.95 707.905 573.176C707.312 573.403 706.834 573.855 706.575 574.434C706.447 574.721 706.376 575.03 706.368 575.344C706.359 575.658 706.412 575.97 706.524 576.264C706.637 576.557 706.805 576.825 707.021 577.053C707.237 577.282 707.496 577.465 707.783 577.593L779.912 609.603C780.491 609.861 781.149 609.879 781.741 609.653C782.334 609.426 782.812 608.974 783.071 608.395C783.329 607.816 783.348 607.158 783.121 606.565C782.895 605.973 782.443 605.495 781.864 605.236Z" fill="#292A2E"/>
<path opacity="0.4" d="M795.657 448.065L770.578 506.372L718.029 483.096L795.657 448.065Z" fill="white"/>
<path d="M50.2487 316.234L21.9487 193.834L62.9087 119.164L191.939 89.334L234.539 273.624L50.2487 316.234Z" fill="#F4F4F4"/>
<path opacity="0.05" d="M188.254 187.85L56.1172 218.075C54.8299 218.369 54.0251 219.651 54.3195 220.938L54.3197 220.939C54.6142 222.227 55.8964 223.032 57.1837 222.737L189.32 192.513C190.607 192.218 191.412 190.936 191.118 189.649L191.117 189.648C190.823 188.36 189.541 187.556 188.254 187.85Z" fill="#292A2E"/>
<path opacity="0.05" d="M194.873 213.937L62.7363 244.162C61.4491 244.456 60.6442 245.739 60.9387 247.026L60.9389 247.027C61.2333 248.314 62.5156 249.119 63.8028 248.824L195.939 218.6C197.226 218.306 198.031 217.023 197.737 215.736L197.737 215.735C197.442 214.448 196.16 213.643 194.873 213.937Z" fill="#292A2E"/>
<path opacity="0.05" d="M146.398 253.039L69.5188 270.839C68.9004 270.98 68.3633 271.361 68.0257 271.898C67.6882 272.435 67.5778 273.084 67.7188 273.703C67.7886 274.009 67.918 274.299 68.0998 274.555C68.2816 274.812 68.5121 275.03 68.7782 275.197C69.0443 275.364 69.3407 275.477 69.6506 275.53C69.9604 275.582 70.2775 275.573 70.5838 275.503L147.463 257.703C148.081 257.562 148.618 257.18 148.956 256.643C149.294 256.106 149.404 255.457 149.263 254.838C149.121 254.22 148.74 253.683 148.203 253.345C147.666 253.008 147.016 252.898 146.398 253.039Z" fill="#292A2E"/>
<path opacity="0.4" d="M62.9087 119.164L77.9317 180.833L21.9487 193.834L62.9087 119.164Z" fill="white"/>
<path d="M664.617 691.451H147.603C140.624 691.451 133.932 688.678 128.998 683.744C124.063 678.81 121.291 672.117 121.291 665.139L139.291 81.505H707.931L690.931 665.139C690.931 668.594 690.25 672.016 688.928 675.209C687.605 678.401 685.667 681.302 683.223 683.745C680.78 686.188 677.879 688.126 674.687 689.449C671.494 690.771 668.072 691.451 664.617 691.451Z" fill="#292A2E"/>
<path opacity="0.9" d="M664.617 691.451H147.603C140.624 691.451 133.932 688.678 128.998 683.744C124.063 678.81 121.291 672.117 121.291 665.139L139.291 81.505H707.931L690.931 665.139C690.931 668.594 690.25 672.016 688.928 675.209C687.605 678.401 685.667 681.302 683.223 683.745C680.78 686.188 677.879 688.126 674.687 689.449C671.494 690.771 668.072 691.451 664.617 691.451Z" fill="white"/>
<path d="M664.617 692.45H147.603C140.362 692.442 133.419 689.562 128.299 684.442C123.178 679.322 120.298 672.379 120.29 665.138L138.29 80.505H708.93L691.93 665.138C691.922 672.379 689.041 679.322 683.921 684.442C678.8 689.562 671.858 692.442 664.617 692.45ZM140.289 82.505L122.289 665.138C122.296 671.849 124.966 678.283 129.712 683.029C134.457 687.774 140.892 690.443 147.603 690.45H664.617C671.328 690.442 677.761 687.773 682.507 683.028C687.252 678.283 689.921 671.849 689.929 665.138L706.929 82.505H140.289Z" fill="#292A2E"/>
<path d="M683.617 23.635H166.603C159.361 23.643 152.419 26.5231 147.298 31.6436C142.178 36.764 139.298 43.7066 139.29 50.948L138.29 82.505H708.93L710.93 50.948C710.922 43.7066 708.042 36.764 702.921 31.6436C697.801 26.5231 690.858 23.643 683.617 23.635Z" fill="#0C0C0C"/>
<path d="M693.617 23.635H170.603C163.361 23.643 156.419 26.5231 151.298 31.6436C146.178 36.764 143.298 43.7066 143.29 50.948V82.505H720.93V50.948C720.922 43.7066 718.042 36.764 712.921 31.6436C707.801 26.5231 700.858 23.643 693.617 23.635Z" fill="#292A2E"/>
<path d="M144.289 81.5H719.929V675.139C719.929 682.117 717.157 688.81 712.222 693.744C707.288 698.679 700.595 701.451 693.617 701.451H170.603C163.624 701.451 156.932 698.679 151.997 693.744C147.063 688.81 144.291 682.117 144.291 675.139V81.5H144.289Z" fill="white"/>
<path d="M693.617 702.45H170.603C163.362 702.442 156.419 699.562 151.299 694.442C146.178 689.322 143.298 682.379 143.29 675.138V80.505H720.93V675.138C720.922 682.379 718.041 689.322 712.921 694.442C707.8 699.562 700.858 702.442 693.617 702.45ZM145.289 82.505V675.138C145.296 681.849 147.966 688.283 152.712 693.029C157.457 697.774 163.892 700.443 170.603 700.45H693.617C700.328 700.442 706.761 697.773 711.507 693.028C716.252 688.283 718.921 681.849 718.929 675.138V82.505H145.289Z" fill="#292A2E"/>
<path d="M246.256 204.784H188.797C185.594 204.781 182.524 203.507 180.259 201.242C177.994 198.978 176.721 195.908 176.717 192.705V135.245C176.721 132.042 177.994 128.972 180.259 126.708C182.524 124.443 185.594 123.169 188.797 123.166H246.256C249.458 123.17 252.528 124.444 254.793 126.708C257.057 128.972 258.331 132.043 258.335 135.245V192.705C258.331 195.907 257.057 198.978 254.793 201.242C252.528 203.507 249.458 204.78 246.256 204.784ZM188.797 125.166C186.124 125.169 183.562 126.232 181.673 128.121C179.783 130.011 178.72 132.573 178.717 135.245V192.705C178.72 195.377 179.783 197.939 181.673 199.829C183.562 201.718 186.124 202.781 188.797 202.784H246.256C248.928 202.781 251.49 201.718 253.379 199.828C255.269 197.939 256.332 195.377 256.335 192.705V135.245C256.332 132.573 255.269 130.011 253.379 128.122C251.49 126.232 248.928 125.169 246.256 125.166H188.797Z" fill="#292A2E"/>
<path d="M246.256 318.622H188.797C185.594 318.619 182.524 317.345 180.259 315.08C177.994 312.816 176.721 309.746 176.717 306.543V249.084C176.719 245.881 177.993 242.809 180.258 240.544C182.522 238.278 185.593 237.004 188.797 237H246.256C249.458 237.004 252.529 238.278 254.793 240.542C257.058 242.807 258.331 245.877 258.335 249.08V306.539C258.332 309.742 257.059 312.813 254.794 315.079C252.53 317.344 249.459 318.618 246.256 318.622ZM188.797 239C186.124 239.003 183.562 240.066 181.673 241.956C179.783 243.846 178.72 246.408 178.717 249.08V306.539C178.72 309.211 179.783 311.773 181.673 313.663C183.562 315.552 186.124 316.615 188.797 316.618H246.256C248.928 316.615 251.49 315.552 253.38 313.663C255.269 311.773 256.332 309.211 256.335 306.539V249.084C256.333 246.411 255.271 243.848 253.381 241.957C251.491 240.067 248.929 239.003 246.256 239H188.797Z" fill="#292A2E"/>
<path d="M246.256 432.46H188.797C185.594 432.457 182.524 431.183 180.259 428.918C177.994 426.654 176.721 423.584 176.717 420.381V362.922C176.721 359.719 177.994 356.649 180.259 354.385C182.524 352.12 185.594 350.846 188.797 350.843H246.256C249.458 350.847 252.528 352.121 254.793 354.385C257.057 356.649 258.331 359.72 258.335 362.922V420.381C258.331 423.583 257.057 426.654 254.793 428.918C252.528 431.183 249.458 432.456 246.256 432.46ZM188.797 352.843C186.124 352.846 183.562 353.909 181.673 355.798C179.783 357.688 178.72 360.25 178.717 362.922V420.381C178.72 423.053 179.783 425.615 181.673 427.505C183.562 429.394 186.124 430.457 188.797 430.46H246.256C248.928 430.457 251.49 429.394 253.38 427.505C255.269 425.615 256.332 423.053 256.335 420.381V362.922C256.332 360.25 255.269 357.688 253.38 355.798C251.49 353.909 248.928 352.846 246.256 352.843H188.797Z" fill="#292A2E"/>
<path d="M246.256 544.734H188.797C185.594 544.731 182.524 543.457 180.259 541.192C177.994 538.928 176.721 535.858 176.717 532.655V475.2C176.721 471.997 177.994 468.927 180.259 466.662C182.524 464.398 185.594 463.124 188.797 463.12H246.256C249.458 463.124 252.529 464.398 254.793 466.662C257.058 468.927 258.331 471.997 258.335 475.2V532.659C258.33 535.861 257.056 538.93 254.791 541.193C252.527 543.457 249.458 544.73 246.256 544.734ZM188.797 465.116C186.124 465.119 183.562 466.182 181.672 468.072C179.783 469.961 178.72 472.524 178.717 475.196V532.655C178.72 535.327 179.783 537.889 181.673 539.779C183.562 541.668 186.124 542.731 188.797 542.734H246.256C248.928 542.731 251.49 541.668 253.379 539.778C255.269 537.889 256.332 535.327 256.335 532.655V475.2C256.332 472.528 255.269 469.965 253.38 468.076C251.49 466.186 248.928 465.123 246.256 465.12L188.797 465.116Z" fill="#292A2E"/>
<path d="M246.256 657.008H188.797C185.594 657.004 182.524 655.73 180.259 653.466C177.994 651.201 176.721 648.131 176.717 644.928V587.469C176.721 584.266 177.994 581.196 180.259 578.931C182.524 576.667 185.594 575.393 188.797 575.389H246.256C249.458 575.393 252.529 576.667 254.793 578.931C257.058 581.196 258.331 584.266 258.335 587.469V644.928C258.331 648.131 257.058 651.201 254.793 653.466C252.529 655.73 249.458 657.004 246.256 657.008ZM188.797 577.389C186.124 577.392 183.562 578.455 181.673 580.345C179.783 582.234 178.72 584.797 178.717 587.469V644.928C178.72 647.6 179.783 650.162 181.673 652.052C183.562 653.942 186.124 655.005 188.797 655.008H246.256C248.928 655.005 251.49 653.942 253.38 652.052C255.269 650.162 256.332 647.6 256.335 644.928V587.469C256.332 584.797 255.269 582.235 253.38 580.345C251.49 578.455 248.928 577.392 246.256 577.389H188.797Z" fill="#292A2E"/>
<path d="M207.303 186.963C206.269 186.964 205.276 186.564 204.532 185.846L187.784 169.746C187.399 169.383 187.09 168.948 186.875 168.465C186.66 167.983 186.542 167.462 186.53 166.934C186.517 166.406 186.608 165.88 186.8 165.387C186.991 164.895 187.278 164.445 187.645 164.064C188.011 163.683 188.449 163.378 188.934 163.168C189.418 162.957 189.94 162.844 190.468 162.837C190.997 162.829 191.522 162.926 192.012 163.122C192.503 163.318 192.95 163.609 193.328 163.979L207.235 177.346L242.103 142.172C242.471 141.793 242.911 141.49 243.397 141.282C243.883 141.074 244.405 140.964 244.934 140.959C245.463 140.953 245.987 141.053 246.477 141.252C246.967 141.451 247.413 141.745 247.788 142.117C248.164 142.489 248.462 142.932 248.665 143.42C248.868 143.909 248.973 144.432 248.973 144.961C248.972 145.49 248.867 146.013 248.663 146.501C248.459 146.989 248.161 147.431 247.785 147.803L210.151 185.778C209.778 186.155 209.335 186.453 208.846 186.657C208.357 186.86 207.832 186.964 207.303 186.963Z" fill="#367CFF"/>
<path d="M207.303 300.8C206.269 300.801 205.276 300.4 204.532 299.683L187.784 283.583C187.019 282.848 186.577 281.839 186.556 280.778C186.535 279.718 186.937 278.692 187.672 277.927C188.407 277.162 189.416 276.721 190.477 276.7C191.537 276.679 192.563 277.08 193.328 277.815L207.235 291.182L242.103 256.01C242.852 255.269 243.864 254.854 244.917 254.855C245.971 254.855 246.982 255.272 247.731 256.013C248.479 256.755 248.905 257.762 248.915 258.816C248.925 259.87 248.519 260.885 247.785 261.641L210.151 299.616C209.778 299.992 209.335 300.291 208.846 300.494C208.357 300.698 207.832 300.802 207.303 300.8Z" fill="#367CFF"/>
<path d="M207.303 414.639C206.269 414.64 205.276 414.24 204.532 413.523L187.784 397.423C187.019 396.688 186.577 395.679 186.556 394.618C186.535 393.558 186.937 392.532 187.672 391.767C188.407 391.002 189.416 390.561 190.477 390.54C191.537 390.519 192.563 390.92 193.328 391.655L207.235 405.022L242.103 369.848C242.852 369.107 243.864 368.692 244.917 368.693C245.971 368.693 246.982 369.11 247.731 369.851C248.479 370.593 248.905 371.6 248.915 372.654C248.925 373.708 248.519 374.723 247.785 375.479L210.151 413.454C209.779 413.831 209.335 414.13 208.846 414.333C208.357 414.536 207.832 414.64 207.303 414.639Z" fill="#367CFF"/>
<path opacity="0.5" d="M676.728 146.184H289.74C288.198 146.184 286.949 147.434 286.949 148.975C286.949 150.516 288.198 151.766 289.74 151.766H676.728C678.269 151.766 679.519 150.516 679.519 148.975C679.519 147.434 678.269 146.184 676.728 146.184Z" fill="#262626"/>
<path opacity="0.5" d="M516.728 176.184H289.74C288.198 176.184 286.949 177.434 286.949 178.975C286.949 180.517 288.198 181.766 289.74 181.766H516.728C518.269 181.766 519.519 180.517 519.519 178.975C519.519 177.434 518.269 176.184 516.728 176.184Z" fill="#262626"/>
<path opacity="0.5" d="M676.728 260.022H289.74C288.198 260.022 286.949 261.272 286.949 262.813C286.949 264.354 288.198 265.604 289.74 265.604H676.728C678.269 265.604 679.519 264.354 679.519 262.813C679.519 261.272 678.269 260.022 676.728 260.022Z" fill="#262626"/>
<path opacity="0.5" d="M516.728 290.022H289.74C288.198 290.022 286.949 291.272 286.949 292.813C286.949 294.354 288.198 295.604 289.74 295.604H516.728C518.269 295.604 519.519 294.354 519.519 292.813C519.519 291.272 518.269 290.022 516.728 290.022Z" fill="#262626"/>
<path opacity="0.5" d="M676.728 373.86H289.74C288.198 373.86 286.949 375.11 286.949 376.651C286.949 378.192 288.198 379.442 289.74 379.442H676.728C678.269 379.442 679.519 378.192 679.519 376.651C679.519 375.11 678.269 373.86 676.728 373.86Z" fill="#262626"/>
<path opacity="0.5" d="M516.728 403.86H289.74C288.198 403.86 286.949 405.11 286.949 406.651C286.949 408.192 288.198 409.442 289.74 409.442H516.728C518.269 409.442 519.519 408.192 519.519 406.651C519.519 405.11 518.269 403.86 516.728 403.86Z" fill="#262626"/>
<path opacity="0.5" d="M676.728 486.134H289.74C288.198 486.134 286.949 487.384 286.949 488.925C286.949 490.466 288.198 491.716 289.74 491.716H676.728C678.269 491.716 679.519 490.466 679.519 488.925C679.519 487.384 678.269 486.134 676.728 486.134Z" fill="#262626"/>
<path opacity="0.5" d="M516.728 516.134H289.74C288.198 516.134 286.949 517.384 286.949 518.925C286.949 520.466 288.198 521.716 289.74 521.716H516.728C518.269 521.716 519.519 520.466 519.519 518.925C519.519 517.384 518.269 516.134 516.728 516.134Z" fill="#262626"/>
<path opacity="0.5" d="M676.728 598.407H289.74C288.198 598.407 286.949 599.657 286.949 601.198C286.949 602.739 288.198 603.989 289.74 603.989H676.728C678.269 603.989 679.519 602.739 679.519 601.198C679.519 599.657 678.269 598.407 676.728 598.407Z" fill="#262626"/>
<path opacity="0.5" d="M516.728 628.407H289.74C288.198 628.407 286.949 629.657 286.949 631.198C286.949 632.739 288.198 633.989 289.74 633.989H516.728C518.269 633.989 519.519 632.739 519.519 631.198C519.519 629.657 518.269 628.407 516.728 628.407Z" fill="#262626"/>
<path d="M213.459 5.96328e-07C207.193 0.0071467 201.185 2.49955 196.754 6.93042C192.323 11.3613 189.831 17.3688 189.824 23.635H191.824C191.823 19.4832 193.017 15.4189 195.264 11.9273C197.51 8.43561 200.713 5.664 204.492 3.94323C208.27 2.22245 212.464 1.6252 216.573 2.22274C220.681 2.82028 224.531 4.58738 227.663 7.31314C230.794 10.0389 233.076 13.6082 234.234 17.5951C235.393 21.5819 235.38 25.818 234.197 29.7976C233.014 33.7773 230.71 37.3325 227.562 40.0389C224.414 42.7454 220.553 44.4887 216.441 45.061C216.094 44.3469 215.504 43.7804 214.776 43.4639C214.048 43.1474 213.231 43.1019 212.473 43.3356C211.714 43.5692 211.064 44.0667 210.641 44.7379C210.217 45.4091 210.048 46.2097 210.163 46.9949C210.279 47.7802 210.672 48.4981 211.27 49.0189C211.869 49.5397 212.635 49.8289 213.429 49.8342C214.222 49.8395 214.992 49.5606 215.597 49.0479C216.203 48.5352 216.606 47.8226 216.732 47.039C222.659 46.2115 228.052 43.166 231.821 38.5173C235.59 33.8686 237.455 27.9629 237.04 21.9926C236.625 16.0222 233.96 10.4318 229.583 6.34989C225.206 2.26799 219.444 -0.00134305 213.459 5.96328e-07Z" fill="#F4F4F4"/>
<path d="M674.394 23.635C674.394 17.3666 671.904 11.355 667.471 6.92253C663.039 2.49011 657.027 0 650.759 0C644.49 0 638.479 2.49011 634.046 6.92253C629.614 11.355 627.124 17.3666 627.124 23.635H629.124C629.123 19.4832 630.317 15.4189 632.564 11.9273C634.81 8.43561 638.013 5.664 641.792 3.94322C645.57 2.22245 649.764 1.6252 653.873 2.22274C657.981 2.82028 661.831 4.58738 664.963 7.31314C668.094 10.0389 670.376 13.6082 671.534 17.5951C672.693 21.5819 672.68 25.818 671.497 29.7976C670.314 33.7773 668.01 37.3325 664.862 40.0389C661.714 42.7454 657.853 44.4887 653.741 45.061C653.394 44.3469 652.804 43.7804 652.076 43.4639C651.348 43.1474 650.531 43.1019 649.773 43.3356C649.014 43.5692 648.364 44.0667 647.941 44.7379C647.517 45.4091 647.348 46.2097 647.463 46.9949C647.579 47.7802 647.972 48.4981 648.571 49.0189C649.169 49.5397 649.935 49.8289 650.729 49.8342C651.522 49.8395 652.292 49.5606 652.898 49.0479C653.503 48.5352 653.906 47.8226 654.032 47.039C659.675 46.243 664.841 43.4376 668.582 39.1381C672.322 34.8387 674.386 29.3339 674.394 23.635Z" fill="#F4F4F4"/>
<path d="M611.923 23.635C611.882 17.3931 609.374 11.4207 604.946 7.02127C600.518 2.62187 594.529 0.15271 588.287 0.15271C582.045 0.15271 576.057 2.62187 571.629 7.02127C567.2 11.4207 564.692 17.3931 564.652 23.635H566.652C566.651 19.4829 567.845 15.4183 570.091 11.9263C572.338 8.43428 575.541 5.66237 579.32 3.94137C583.099 2.22038 587.293 1.623 591.401 2.22053C595.51 2.81806 599.36 4.58526 602.492 7.31121C605.624 10.0372 607.906 13.6067 609.064 17.5939C610.223 21.581 610.21 25.8174 609.027 29.7973C607.843 33.7772 605.54 37.3326 602.391 40.0391C599.242 42.7456 595.381 44.4889 591.269 45.061C590.922 44.3469 590.332 43.7803 589.604 43.4639C588.876 43.1474 588.059 43.1018 587.301 43.3355C586.542 43.5692 585.892 44.0666 585.469 44.7378C585.045 45.409 584.876 46.2097 584.991 46.9949C585.107 47.7801 585.5 48.4981 586.099 49.0188C586.697 49.5396 587.463 49.8288 588.257 49.8342C589.05 49.8395 589.82 49.5606 590.426 49.0479C591.031 48.5352 591.434 47.8226 591.56 47.039C597.203 46.2432 602.37 43.4378 606.11 39.1384C609.851 34.8389 611.915 29.334 611.923 23.635Z" fill="#F4F4F4"/>
<path d="M549.452 23.635C549.411 17.3931 546.903 11.4207 542.475 7.02127C538.047 2.62187 532.058 0.15271 525.816 0.15271C519.574 0.15271 513.586 2.62187 509.157 7.02127C504.729 11.4207 502.221 17.3931 502.181 23.635H504.181C504.18 19.4831 505.374 15.4188 507.62 11.927C509.866 8.43519 513.07 5.6634 516.848 3.94238C520.626 2.22136 524.82 1.6238 528.929 2.22102C533.037 2.81823 536.888 4.585 540.02 7.31048C543.152 10.036 545.433 13.605 546.592 17.5918C547.751 21.5786 547.739 25.8146 546.556 29.7945C545.374 33.7744 543.071 37.33 539.923 40.0369C536.775 42.7439 532.915 44.488 528.803 45.061C528.456 44.3469 527.866 43.7803 527.138 43.4639C526.41 43.1474 525.593 43.1018 524.834 43.3355C524.076 43.5692 523.426 44.0666 523.003 44.7378C522.579 45.409 522.41 46.2097 522.525 46.9949C522.641 47.7801 523.034 48.4981 523.632 49.0188C524.231 49.5396 524.997 49.8288 525.791 49.8342C526.584 49.8395 527.354 49.5606 527.959 49.0479C528.565 48.5352 528.968 47.8226 529.094 47.039C534.736 46.2421 539.901 43.4363 543.641 39.1369C547.381 34.8375 549.444 29.3333 549.452 23.635Z" fill="#F4F4F4"/>
<path d="M486.98 23.635C486.98 17.3666 484.49 11.355 480.057 6.92253C475.625 2.49011 469.613 0 463.345 0C457.076 0 451.065 2.49011 446.632 6.92253C442.2 11.355 439.71 17.3666 439.71 23.635H441.71C441.709 19.4832 442.903 15.4189 445.15 11.9273C447.396 8.43561 450.599 5.664 454.378 3.94322C458.156 2.22245 462.35 1.6252 466.458 2.22274C470.567 2.82028 474.417 4.58738 477.549 7.31314C480.68 10.0389 482.962 13.6082 484.12 17.5951C485.279 21.5819 485.266 25.818 484.083 29.7976C482.9 33.7773 480.596 37.3325 477.448 40.0389C474.3 42.7454 470.439 44.4887 466.327 45.061C465.981 44.3464 465.39 43.7794 464.662 43.4623C463.934 43.1453 463.117 43.0993 462.358 43.3327C461.599 43.566 460.949 44.0633 460.525 44.7345C460.101 45.4057 459.931 46.2065 460.046 46.9921C460.161 47.7776 460.554 48.496 461.153 49.0172C461.752 49.5385 462.517 49.8281 463.311 49.8338C464.105 49.8395 464.875 49.5608 465.481 49.0481C466.088 48.5355 466.49 47.8228 466.617 47.039C472.26 46.2432 477.427 43.4379 481.167 39.1384C484.908 34.8389 486.972 29.334 486.98 23.635Z" fill="#F4F4F4"/>
<path d="M424.509 23.635C424.468 17.3931 421.96 11.4207 417.532 7.02127C413.104 2.62187 407.115 0.15271 400.873 0.15271C394.631 0.15271 388.643 2.62187 384.215 7.02127C379.786 11.4207 377.278 17.3931 377.238 23.635H379.238C379.237 19.4829 380.431 15.4183 382.677 11.9263C384.924 8.43428 388.127 5.66237 391.906 3.94137C395.685 2.22038 399.879 1.623 403.987 2.22053C408.096 2.81806 411.946 4.58526 415.078 7.31121C418.21 10.0372 420.492 13.6067 421.65 17.5939C422.809 21.581 422.796 25.8174 421.613 29.7973C420.429 33.7772 418.126 37.3326 414.977 40.0391C411.828 42.7456 407.967 44.4889 403.855 45.061C403.508 44.3469 402.918 43.7803 402.19 43.4639C401.462 43.1474 400.645 43.1018 399.887 43.3355C399.128 43.5692 398.478 44.0666 398.055 44.7378C397.631 45.409 397.462 46.2097 397.577 46.9949C397.693 47.7801 398.086 48.4981 398.685 49.0188C399.283 49.5396 400.049 49.8288 400.843 49.8342C401.636 49.8395 402.406 49.5606 403.012 49.0479C403.617 48.5352 404.02 47.8226 404.146 47.039C409.789 46.2432 414.956 43.4378 418.696 39.1384C422.437 34.8389 424.501 29.334 424.509 23.635Z" fill="#F4F4F4"/>
<path d="M362.037 23.635C362.037 17.3666 359.547 11.355 355.114 6.92253C350.682 2.49011 344.67 0 338.402 0C332.133 0 326.122 2.49011 321.689 6.92253C317.257 11.355 314.767 17.3666 314.767 23.635H316.767C316.766 19.4832 317.961 15.4189 320.207 11.9273C322.453 8.4356 325.656 5.664 329.435 3.94322C333.213 2.22245 337.407 1.6252 341.516 2.22274C345.624 2.82028 349.474 4.58738 352.606 7.31314C355.737 10.0389 358.019 13.6082 359.177 17.5951C360.336 21.5819 360.323 25.818 359.14 29.7976C357.957 33.7773 355.654 37.3325 352.505 40.0389C349.357 42.7454 345.496 44.4887 341.384 45.061C341.038 44.3464 340.447 43.7794 339.719 43.4623C338.992 43.1453 338.174 43.0993 337.415 43.3327C336.656 43.566 336.006 44.0633 335.582 44.7345C335.158 45.4057 334.988 46.2065 335.103 46.9921C335.219 47.7776 335.611 48.496 336.21 49.0172C336.809 49.5385 337.575 49.8281 338.368 49.8338C339.162 49.8395 339.932 49.5608 340.538 49.0481C341.145 48.5355 341.547 47.8228 341.674 47.039C347.317 46.2432 352.484 43.4379 356.224 39.1384C359.965 34.8389 362.029 29.334 362.037 23.635Z" fill="#F4F4F4"/>
<path d="M299.566 23.635C299.525 17.3931 297.017 11.4207 292.589 7.02127C288.161 2.62187 282.172 0.15271 275.93 0.15271C269.688 0.15271 263.7 2.62187 259.271 7.02127C254.843 11.4207 252.335 17.3931 252.295 23.635H254.295C254.294 19.4829 255.488 15.4183 257.734 11.9263C259.981 8.43428 263.184 5.66237 266.963 3.94137C270.741 2.22038 274.935 1.623 279.044 2.22053C283.153 2.81806 287.003 4.58526 290.135 7.31121C293.267 10.0372 295.549 13.6067 296.707 17.5939C297.866 21.581 297.853 25.8174 296.669 29.7973C295.486 33.7772 293.183 37.3326 290.034 40.0391C286.885 42.7456 283.024 44.4889 278.912 45.061C278.565 44.3469 277.975 43.7803 277.247 43.4639C276.519 43.1474 275.702 43.1018 274.943 43.3355C274.185 43.5692 273.535 44.0666 273.112 44.7378C272.688 45.409 272.519 46.2097 272.634 46.9949C272.75 47.7801 273.143 48.4981 273.741 49.0188C274.34 49.5396 275.106 49.8288 275.9 49.8342C276.693 49.8395 277.463 49.5606 278.068 49.0479C278.674 48.5352 279.077 47.8226 279.203 47.039C284.846 46.2432 290.012 43.4378 293.753 39.1384C297.494 34.8389 299.558 29.334 299.566 23.635Z" fill="#F4F4F4"/>
<g opacity="0.6">
<path d="M213.459 5.96328e-07C207.193 0.0071467 201.185 2.49955 196.754 6.93042C192.323 11.3613 189.831 17.3688 189.824 23.635H191.824C191.823 19.4832 193.017 15.4189 195.264 11.9273C197.51 8.43561 200.713 5.664 204.492 3.94323C208.27 2.22245 212.464 1.6252 216.573 2.22274C220.681 2.82028 224.531 4.58738 227.663 7.31314C230.794 10.0389 233.076 13.6082 234.234 17.5951C235.393 21.5819 235.38 25.818 234.197 29.7976C233.014 33.7773 230.71 37.3325 227.562 40.0389C224.414 42.7454 220.553 44.4887 216.441 45.061C216.094 44.3469 215.504 43.7804 214.776 43.4639C214.048 43.1474 213.231 43.1019 212.473 43.3356C211.714 43.5692 211.064 44.0667 210.641 44.7379C210.217 45.4091 210.048 46.2097 210.163 46.9949C210.279 47.7802 210.672 48.4981 211.27 49.0189C211.869 49.5397 212.635 49.8289 213.429 49.8342C214.222 49.8395 214.992 49.5606 215.597 49.0479C216.203 48.5352 216.606 47.8226 216.732 47.039C222.659 46.2115 228.052 43.166 231.821 38.5173C235.59 33.8686 237.455 27.9629 237.04 21.9926C236.625 16.0222 233.96 10.4318 229.583 6.34989C225.206 2.26799 219.444 -0.00134305 213.459 5.96328e-07Z" fill="#292A2E"/>
<path d="M674.394 23.635C674.394 17.3666 671.904 11.355 667.471 6.92253C663.039 2.49011 657.027 0 650.759 0C644.49 0 638.479 2.49011 634.046 6.92253C629.614 11.355 627.124 17.3666 627.124 23.635H629.124C629.123 19.4832 630.317 15.4189 632.564 11.9273C634.81 8.43561 638.013 5.664 641.792 3.94322C645.57 2.22245 649.764 1.6252 653.873 2.22274C657.981 2.82028 661.831 4.58738 664.963 7.31314C668.094 10.0389 670.376 13.6082 671.534 17.5951C672.693 21.5819 672.68 25.818 671.497 29.7976C670.314 33.7773 668.01 37.3325 664.862 40.0389C661.714 42.7454 657.853 44.4887 653.741 45.061C653.394 44.3469 652.804 43.7804 652.076 43.4639C651.348 43.1474 650.531 43.1019 649.773 43.3356C649.014 43.5692 648.364 44.0667 647.941 44.7379C647.517 45.4091 647.348 46.2097 647.463 46.9949C647.579 47.7802 647.972 48.4981 648.571 49.0189C649.169 49.5397 649.935 49.8289 650.729 49.8342C651.522 49.8395 652.292 49.5606 652.898 49.0479C653.503 48.5352 653.906 47.8226 654.032 47.039C659.675 46.243 664.841 43.4376 668.582 39.1381C672.322 34.8387 674.386 29.3339 674.394 23.635Z" fill="#292A2E"/>
<path d="M611.923 23.635C611.882 17.3931 609.374 11.4207 604.946 7.02127C600.518 2.62187 594.529 0.15271 588.287 0.15271C582.045 0.15271 576.057 2.62187 571.629 7.02127C567.2 11.4207 564.692 17.3931 564.652 23.635H566.652C566.651 19.4829 567.845 15.4183 570.091 11.9263C572.338 8.43428 575.541 5.66237 579.32 3.94137C583.099 2.22038 587.293 1.623 591.401 2.22053C595.51 2.81806 599.36 4.58526 602.492 7.31121C605.624 10.0372 607.906 13.6067 609.064 17.5939C610.223 21.581 610.21 25.8174 609.027 29.7973C607.843 33.7772 605.54 37.3326 602.391 40.0391C599.242 42.7456 595.381 44.4889 591.269 45.061C590.922 44.3469 590.332 43.7803 589.604 43.4639C588.876 43.1474 588.059 43.1018 587.301 43.3355C586.542 43.5692 585.892 44.0666 585.469 44.7378C585.045 45.409 584.876 46.2097 584.991 46.9949C585.107 47.7801 585.5 48.4981 586.099 49.0188C586.697 49.5396 587.463 49.8288 588.257 49.8342C589.05 49.8395 589.82 49.5606 590.426 49.0479C591.031 48.5352 591.434 47.8226 591.56 47.039C597.203 46.2432 602.37 43.4378 606.11 39.1384C609.851 34.8389 611.915 29.334 611.923 23.635Z" fill="#292A2E"/>
<path d="M549.452 23.635C549.411 17.3931 546.903 11.4207 542.475 7.02127C538.047 2.62187 532.058 0.15271 525.816 0.15271C519.574 0.15271 513.586 2.62187 509.157 7.02127C504.729 11.4207 502.221 17.3931 502.181 23.635H504.181C504.18 19.4831 505.374 15.4188 507.62 11.927C509.866 8.43519 513.07 5.6634 516.848 3.94238C520.626 2.22136 524.82 1.6238 528.929 2.22102C533.037 2.81823 536.888 4.585 540.02 7.31048C543.152 10.036 545.433 13.605 546.592 17.5918C547.751 21.5786 547.739 25.8146 546.556 29.7945C545.374 33.7744 543.071 37.33 539.923 40.0369C536.775 42.7439 532.915 44.488 528.803 45.061C528.456 44.3469 527.866 43.7803 527.138 43.4639C526.41 43.1474 525.593 43.1018 524.834 43.3355C524.076 43.5692 523.426 44.0666 523.003 44.7378C522.579 45.409 522.41 46.2097 522.525 46.9949C522.641 47.7801 523.034 48.4981 523.632 49.0188C524.231 49.5396 524.997 49.8288 525.791 49.8342C526.584 49.8395 527.354 49.5606 527.959 49.0479C528.565 48.5352 528.968 47.8226 529.094 47.039C534.736 46.2421 539.901 43.4363 543.641 39.1369C547.381 34.8375 549.444 29.3333 549.452 23.635Z" fill="#292A2E"/>
<path d="M486.98 23.635C486.98 17.3666 484.49 11.355 480.057 6.92253C475.625 2.49011 469.613 0 463.345 0C457.076 0 451.065 2.49011 446.632 6.92253C442.2 11.355 439.71 17.3666 439.71 23.635H441.71C441.709 19.4832 442.903 15.4189 445.15 11.9273C447.396 8.43561 450.599 5.664 454.378 3.94322C458.156 2.22245 462.35 1.6252 466.458 2.22274C470.567 2.82028 474.417 4.58738 477.549 7.31314C480.68 10.0389 482.962 13.6082 484.12 17.5951C485.279 21.5819 485.266 25.818 484.083 29.7976C482.9 33.7773 480.596 37.3325 477.448 40.0389C474.3 42.7454 470.439 44.4887 466.327 45.061C465.981 44.3464 465.39 43.7794 464.662 43.4623C463.934 43.1453 463.117 43.0993 462.358 43.3327C461.599 43.566 460.949 44.0633 460.525 44.7345C460.101 45.4057 459.931 46.2065 460.046 46.9921C460.161 47.7776 460.554 48.496 461.153 49.0172C461.752 49.5385 462.517 49.8281 463.311 49.8338C464.105 49.8395 464.875 49.5608 465.481 49.0481C466.088 48.5355 466.49 47.8228 466.617 47.039C472.26 46.2432 477.427 43.4379 481.167 39.1384C484.908 34.8389 486.972 29.334 486.98 23.635Z" fill="#292A2E"/>
<path d="M424.509 23.635C424.468 17.3931 421.96 11.4207 417.532 7.02127C413.104 2.62187 407.115 0.15271 400.873 0.15271C394.631 0.15271 388.643 2.62187 384.215 7.02127C379.786 11.4207 377.278 17.3931 377.238 23.635H379.238C379.237 19.4829 380.431 15.4183 382.677 11.9263C384.924 8.43428 388.127 5.66237 391.906 3.94137C395.685 2.22038 399.879 1.623 403.987 2.22053C408.096 2.81806 411.946 4.58526 415.078 7.31121C418.21 10.0372 420.492 13.6067 421.65 17.5939C422.809 21.581 422.796 25.8174 421.613 29.7973C420.429 33.7772 418.126 37.3326 414.977 40.0391C411.828 42.7456 407.967 44.4889 403.855 45.061C403.508 44.3469 402.918 43.7803 402.19 43.4639C401.462 43.1474 400.645 43.1018 399.887 43.3355C399.128 43.5692 398.478 44.0666 398.055 44.7378C397.631 45.409 397.462 46.2097 397.577 46.9949C397.693 47.7801 398.086 48.4981 398.685 49.0188C399.283 49.5396 400.049 49.8288 400.843 49.8342C401.636 49.8395 402.406 49.5606 403.012 49.0479C403.617 48.5352 404.02 47.8226 404.146 47.039C409.789 46.2432 414.956 43.4378 418.696 39.1384C422.437 34.8389 424.501 29.334 424.509 23.635Z" fill="#292A2E"/>
<path d="M362.037 23.635C362.037 17.3666 359.547 11.355 355.114 6.92253C350.682 2.49011 344.67 0 338.402 0C332.133 0 326.122 2.49011 321.689 6.92253C317.257 11.355 314.767 17.3666 314.767 23.635H316.767C316.766 19.4832 317.961 15.4189 320.207 11.9273C322.453 8.4356 325.656 5.664 329.435 3.94322C333.213 2.22245 337.407 1.6252 341.516 2.22274C345.624 2.82028 349.474 4.58738 352.606 7.31314C355.737 10.0389 358.019 13.6082 359.177 17.5951C360.336 21.5819 360.323 25.818 359.14 29.7976C357.957 33.7773 355.654 37.3325 352.505 40.0389C349.357 42.7454 345.496 44.4887 341.384 45.061C341.038 44.3464 340.447 43.7794 339.719 43.4623C338.992 43.1453 338.174 43.0993 337.415 43.3327C336.656 43.566 336.006 44.0633 335.582 44.7345C335.158 45.4057 334.988 46.2065 335.103 46.9921C335.219 47.7776 335.611 48.496 336.21 49.0172C336.809 49.5385 337.575 49.8281 338.368 49.8338C339.162 49.8395 339.932 49.5608 340.538 49.0481C341.145 48.5355 341.547 47.8228 341.674 47.039C347.317 46.2432 352.484 43.4379 356.224 39.1384C359.965 34.8389 362.029 29.334 362.037 23.635Z" fill="#292A2E"/>
<path d="M299.566 23.635C299.525 17.3931 297.017 11.4207 292.589 7.02127C288.161 2.62187 282.172 0.15271 275.93 0.15271C269.688 0.15271 263.7 2.62187 259.271 7.02127C254.843 11.4207 252.335 17.3931 252.295 23.635H254.295C254.294 19.4829 255.488 15.4183 257.734 11.9263C259.981 8.43428 263.184 5.66237 266.963 3.94137C270.741 2.22038 274.935 1.623 279.044 2.22053C283.153 2.81806 287.003 4.58526 290.135 7.31121C293.267 10.0372 295.549 13.6067 296.707 17.5939C297.866 21.581 297.853 25.8174 296.669 29.7973C295.486 33.7772 293.183 37.3326 290.034 40.0391C286.885 42.7456 283.024 44.4889 278.912 45.061C278.565 44.3469 277.975 43.7803 277.247 43.4639C276.519 43.1474 275.702 43.1018 274.943 43.3355C274.185 43.5692 273.535 44.0666 273.112 44.7378C272.688 45.409 272.519 46.2097 272.634 46.9949C272.75 47.7801 273.143 48.4981 273.741 49.0188C274.34 49.5396 275.106 49.8288 275.9 49.8342C276.693 49.8395 277.463 49.5606 278.068 49.0479C278.674 48.5352 279.077 47.8226 279.203 47.039C284.846 46.2432 290.012 43.4378 293.753 39.1384C297.494 34.8389 299.558 29.334 299.566 23.635Z" fill="#292A2E"/>
</g>
<path d="M85.4028 724.8C85.2714 724.8 85.1413 724.775 85.0199 724.724C84.8985 724.674 84.7884 724.6 84.6958 724.507C83.2868 723.099 80.9898 697.249 74.8038 620.284C72.2728 588.792 69.8818 559.046 68.1368 540.969C68.0128 539.678 67.5118 539.528 67.3478 539.479C64.9588 538.758 57.6958 544.485 53.6408 549.501C53.5582 549.603 53.4562 549.688 53.3408 549.751C53.2254 549.814 53.0988 549.853 52.9681 549.867C52.8375 549.881 52.7054 549.869 52.5794 549.831C52.4534 549.794 52.3359 549.733 52.2338 549.65C52.1316 549.567 52.0467 549.465 51.9839 549.35C51.9211 549.235 51.8817 549.108 51.8679 548.977C51.854 548.847 51.8661 548.715 51.9033 548.589C51.9405 548.463 52.0022 548.345 52.0848 548.243C54.7668 544.927 63.5068 536.234 67.9228 537.563C68.8128 537.831 69.9178 538.605 70.1228 540.777C71.8688 558.87 74.2608 588.624 76.7928 620.124C80.5518 666.894 84.8098 719.88 86.2098 723.217C86.3167 723.366 86.3806 723.542 86.3945 723.725C86.4083 723.908 86.3715 724.091 86.2882 724.254C86.2049 724.418 86.0782 724.555 85.922 724.651C85.7659 724.748 85.5862 724.799 85.4028 724.8Z" fill="#494949"/>
<path d="M65.5686 574.137C82.1624 560.836 87.6623 540.133 77.8529 527.895C68.0435 515.658 46.6395 516.52 30.0457 529.821C13.4519 543.123 7.95208 563.826 17.7614 576.064C27.5708 588.301 48.9748 587.439 65.5686 574.137Z" fill="#0CBC8B"/>
<path opacity="0.2" d="M65.5686 574.137C82.1624 560.836 87.6623 540.133 77.8529 527.895C68.0435 515.658 46.6395 516.52 30.0457 529.821C13.4519 543.123 7.95208 563.826 17.7614 576.064C27.5708 588.301 48.9748 587.439 65.5686 574.137Z" fill="white"/>
<path d="M22.4128 579.174C22.2962 579.175 22.1832 579.134 22.0938 579.059C21.9929 578.974 21.9294 578.854 21.917 578.722C21.9046 578.591 21.9445 578.461 22.0278 578.359L69.3188 521.33C69.3608 521.279 69.4123 521.238 69.4704 521.207C69.5285 521.176 69.5921 521.157 69.6575 521.151C69.7229 521.145 69.7889 521.152 69.8517 521.171C69.9144 521.191 69.9728 521.223 70.0233 521.264C70.0739 521.306 70.1157 521.358 70.1463 521.416C70.177 521.474 70.1959 521.538 70.202 521.603C70.2081 521.669 70.2012 521.735 70.1818 521.797C70.1624 521.86 70.1308 521.918 70.0888 521.969L22.8028 578.994C22.7553 579.051 22.6956 579.097 22.6281 579.128C22.5607 579.159 22.4871 579.175 22.4128 579.174Z" fill="white"/>
<path d="M95.7167 712.57C95.5571 712.57 95.3999 712.532 95.2581 712.458C95.1164 712.385 94.9942 712.279 94.9018 712.149C94.8094 712.019 94.7494 711.869 94.727 711.711C94.7045 711.553 94.7202 711.392 94.7727 711.241L112.537 660.154C113.06 658.653 113.951 657.307 115.129 656.24C116.307 655.173 117.734 654.418 119.279 654.045C120.824 653.672 122.438 653.693 123.973 654.105C125.508 654.518 126.915 655.309 128.065 656.406L137.457 665.377C137.649 665.56 137.76 665.812 137.766 666.077C137.772 666.343 137.672 666.6 137.489 666.791C137.306 666.983 137.054 667.095 136.789 667.101C136.523 667.107 136.267 667.007 136.075 666.824L126.684 657.852C125.776 656.986 124.665 656.361 123.453 656.036C122.241 655.71 120.967 655.694 119.747 655.988C118.527 656.283 117.401 656.878 116.471 657.721C115.541 658.564 114.838 659.626 114.425 660.811L96.6617 711.9C96.5932 712.096 96.4654 712.266 96.2961 712.386C96.1268 712.506 95.9243 712.57 95.7167 712.57Z" fill="#494949"/>
<path d="M163.692 693.66C175.99 683.926 175.259 662.517 162.06 645.841C148.861 629.166 128.192 623.539 115.894 633.273C103.597 643.007 104.327 664.416 117.526 681.091C130.726 697.767 151.395 703.394 163.692 693.66Z" fill="#0CBC8B"/>
<path d="M77.3328 721.538C77.1081 721.538 76.8899 721.462 76.7136 721.323C76.5372 721.183 76.413 720.989 76.3608 720.77L46.5498 596.125C46.3459 595.276 45.9117 594.499 45.295 593.88C44.6784 593.262 43.9031 592.825 43.0544 592.618C42.2057 592.411 41.3164 592.443 40.4843 592.708C39.6522 592.974 38.9095 593.464 38.3378 594.125L29.1478 604.745C29.0623 604.846 28.9577 604.928 28.84 604.989C28.7223 605.049 28.5938 605.085 28.4621 605.095C28.3304 605.105 28.1979 605.089 28.0724 605.047C27.9469 605.006 27.8309 604.94 27.731 604.854C27.6311 604.767 27.5493 604.662 27.4904 604.544C27.4315 604.425 27.3966 604.297 27.3877 604.165C27.3789 604.033 27.3963 603.901 27.4388 603.776C27.4814 603.65 27.5484 603.535 27.6358 603.436L36.8248 592.817C37.6375 591.878 38.6934 591.181 39.8764 590.803C41.0595 590.426 42.3238 590.382 43.5303 590.676C44.7368 590.97 45.8386 591.592 46.7147 592.472C47.5908 593.352 48.2071 594.457 48.4958 595.665L78.3028 720.305C78.3645 720.563 78.3211 720.835 78.1824 721.061C78.0436 721.287 77.8207 721.448 77.5628 721.51C77.4875 721.528 77.4103 721.538 77.3328 721.538Z" fill="#494949"/>
<path d="M66.3338 632.434C69.9577 611.478 60.3671 592.324 44.9127 589.651C29.4583 586.979 13.9923 601.8 10.3684 622.756C6.74459 643.712 16.3352 662.866 31.7896 665.539C47.244 668.211 62.71 653.39 66.3338 632.434Z" fill="#0CBC8B"/>
<path d="M85.4029 724.8C85.3618 724.8 85.3207 724.798 85.2799 724.793C85.1495 724.777 85.0235 724.736 84.9091 724.671C84.7947 724.606 84.6942 724.52 84.6133 724.416C84.5324 724.312 84.4727 724.194 84.4377 724.067C84.4026 723.941 84.3928 723.808 84.4089 723.678L103.446 569.116C103.653 567.432 104.343 565.844 105.431 564.543C106.519 563.242 107.96 562.282 109.581 561.78C111.201 561.278 112.932 561.255 114.565 561.713C116.199 562.171 117.665 563.091 118.788 564.363L140.546 589.006C140.633 589.104 140.7 589.219 140.742 589.343C140.785 589.468 140.802 589.599 140.794 589.73C140.786 589.861 140.752 589.99 140.694 590.108C140.637 590.226 140.556 590.331 140.458 590.418C140.359 590.505 140.245 590.572 140.12 590.614C139.996 590.657 139.865 590.675 139.734 590.666C139.603 590.658 139.474 590.624 139.356 590.567C139.238 590.509 139.133 590.428 139.046 590.33L117.288 565.687C116.42 564.704 115.287 563.993 114.025 563.639C112.762 563.284 111.424 563.302 110.172 563.69C108.92 564.078 107.806 564.82 106.965 565.826C106.124 566.831 105.591 568.059 105.431 569.36L86.3949 723.917C86.3662 724.16 86.2495 724.384 86.0666 724.547C85.8838 724.71 85.6477 724.8 85.4029 724.8Z" fill="#494949"/>
<path d="M162.862 602.7C170.453 588.976 161.521 569.506 142.911 559.212C124.302 548.918 103.062 551.699 95.4704 565.423C87.8789 579.147 96.8108 598.618 115.42 608.912C134.03 619.205 155.27 616.425 162.862 602.7Z" fill="#0CBC8B"/>
<path opacity="0.2" d="M163.692 693.66C175.99 683.926 175.259 662.517 162.06 645.841C148.861 629.166 128.192 623.539 115.894 633.273C103.597 643.007 104.327 664.416 117.526 681.091C130.726 697.767 151.395 703.394 163.692 693.66Z" fill="white"/>
<path opacity="0.5" d="M66.3338 632.434C69.9577 611.478 60.3671 592.324 44.9127 589.651C29.4583 586.979 13.9923 601.8 10.3684 622.756C6.74459 643.712 16.3352 662.866 31.7896 665.539C47.244 668.211 62.71 653.39 66.3338 632.434Z" fill="white"/>
<path opacity="0.5" d="M162.862 602.7C170.453 588.976 161.521 569.506 142.911 559.212C124.302 548.918 103.062 551.699 95.4704 565.423C87.8789 579.147 96.8108 598.618 115.42 608.912C134.03 619.205 155.27 616.425 162.862 602.7Z" fill="white"/>
<path d="M109.751 855.937H61.0539L52.9849 700.133H117.82L109.751 855.937Z" fill="#292A2E"/>
<path opacity="0.3" d="M109.751 855.937H61.0539L52.9849 700.133H117.82L109.751 855.937Z" fill="white"/>
<path d="M163.696 694.157C163.62 694.157 163.546 694.14 163.478 694.107C163.41 694.074 163.351 694.026 163.304 693.967L115.504 633.581C115.463 633.529 115.433 633.47 115.415 633.407C115.397 633.344 115.392 633.278 115.399 633.213C115.407 633.148 115.427 633.085 115.459 633.027C115.491 632.97 115.534 632.919 115.585 632.878C115.637 632.838 115.696 632.807 115.759 632.789C115.822 632.771 115.888 632.766 115.953 632.774C116.019 632.781 116.082 632.802 116.139 632.834C116.197 632.866 116.247 632.909 116.288 632.96L164.088 693.346C164.146 693.42 164.183 693.508 164.193 693.602C164.204 693.695 164.187 693.79 164.146 693.875C164.106 693.959 164.042 694.031 163.962 694.081C163.882 694.131 163.79 694.157 163.696 694.157Z" fill="white"/>
<path d="M159.683 607.539C159.575 607.539 159.469 607.504 159.383 607.439L98.2218 562.781C98.1688 562.742 98.1239 562.693 98.0897 562.637C98.0555 562.581 98.0327 562.519 98.0226 562.454C98.0125 562.389 98.0152 562.323 98.0307 562.259C98.0462 562.195 98.0741 562.135 98.1128 562.082C98.1516 562.029 98.2004 561.984 98.2565 561.95C98.3126 561.916 98.3749 561.893 98.4398 561.883C98.5047 561.873 98.5709 561.875 98.6348 561.891C98.6986 561.906 98.7588 561.934 98.8118 561.973L159.978 606.636C160.061 606.699 160.123 606.786 160.155 606.886C160.186 606.985 160.186 607.092 160.153 607.192C160.12 607.291 160.058 607.378 159.973 607.439C159.889 607.501 159.787 607.535 159.683 607.536V607.539Z" fill="white"/>
<path d="M29.3029 664.888C29.2594 664.888 29.216 664.882 29.1739 664.871C29.0458 664.837 28.9366 664.753 28.8702 664.638C28.8038 664.524 28.7857 664.387 28.8199 664.259L48.2909 591.306C48.3279 591.181 48.4121 591.076 48.5256 591.012C48.6391 590.948 48.773 590.931 48.8988 590.965C49.0246 590.998 49.1324 591.08 49.1993 591.191C49.2661 591.303 49.2868 591.436 49.2569 591.563L29.7909 664.517C29.7623 664.624 29.6988 664.719 29.6104 664.786C29.5221 664.853 29.4139 664.889 29.3029 664.888Z" fill="white"/>
<path d="M851.938 296.812L854.75 294.496C855.634 293.737 856.197 292.671 856.325 291.513C856.454 290.355 856.138 289.191 855.442 288.257C855.066 287.787 854.598 287.399 854.066 287.117C853.535 286.834 852.952 286.662 852.352 286.612C851.753 286.563 851.149 286.635 850.579 286.826C850.008 287.018 849.483 287.323 849.034 287.724L815.664 317.347L824.889 328.282C827.754 331.678 831.568 334.141 835.842 335.355C840.116 336.569 844.655 336.479 848.878 335.097L867.994 328.802C868.994 328.494 869.856 327.85 870.436 326.979C871.016 326.109 871.277 325.064 871.175 324.023C870.913 321.972 851.938 296.812 851.938 296.812Z" fill="#E98862"/>
<path d="M831.993 297.041L739.939 325.565L683.803 230.472L635.845 258.515L706.612 372.882L707.061 373.454C710.771 378.056 715.824 381.387 721.516 382.982C727.208 384.577 733.256 384.358 738.818 382.354L848.546 342.608L831.993 297.041Z" fill="#367CFF"/>
<path d="M888.173 797.459L811.423 801.066L781.821 297.154L858.572 293.548L888.173 797.459Z" fill="#367CFF"/>
<path opacity="0.5" d="M888.173 797.459L811.423 801.066L781.821 297.154L858.572 293.548L888.173 797.459Z" fill="white"/>
<path d="M855.964 238.022L779.213 241.63L781.823 297.148L858.573 293.541L855.964 238.022Z" fill="#262626"/>
<path d="M888.176 797.458C888.176 797.458 877.645 815.744 868.154 832.095C860.627 845.063 853.754 856.815 853.311 857.254C852.855 857.709 844.276 846.302 835.001 833.654C823.728 818.284 811.421 801.068 811.421 801.068L888.176 797.458Z" fill="#367CFF"/>
<path opacity="0.9" d="M888.176 797.458C888.176 797.458 877.645 815.744 868.154 832.095C860.627 845.063 853.754 856.815 853.311 857.254C852.855 857.709 844.276 846.302 835.001 833.654C823.728 818.284 811.421 801.068 811.421 801.068L888.176 797.458Z" fill="white"/>
<path d="M868.154 832.1C860.627 845.068 853.754 856.82 853.311 857.259C852.855 857.714 844.276 846.307 835.001 833.659L868.154 832.1Z" fill="#262626"/>
<path d="M864.269 798.436L833.315 294.835L836.817 294.659L867.77 798.259L864.269 798.436Z" fill="white"/>
<path d="M834.242 799.859L803.288 296.258L806.79 296.082L837.744 799.682L834.242 799.859Z" fill="white"/>
<path d="M847.029 320.309C847.027 319.342 847.342 318.4 847.925 317.628C848.508 316.856 849.327 316.296 850.258 316.032C850.225 315.961 850.096 315.812 850.221 315.762L846.575 315.116C845.497 314.949 844.515 314.397 843.812 313.563C843.109 312.729 842.732 311.668 842.75 310.577C842.803 309.5 843.254 308.481 844.015 307.718C844.777 306.955 845.794 306.502 846.871 306.446C846.845 306.411 846.854 306.362 846.84 306.32L845.34 306.054C844.325 305.892 843.396 305.385 842.712 304.618C842.028 303.85 841.629 302.87 841.585 301.843C841.57 301.198 841.699 300.559 841.962 299.97C842.224 299.381 842.614 298.857 843.103 298.437C843.593 298.018 844.169 297.711 844.791 297.541C845.413 297.371 846.065 297.341 846.7 297.453L850.158 298.065C850.158 298.046 850.143 298.032 850.146 298.013C850.149 297.994 850.174 297.975 850.182 297.953C849.272 297.571 848.52 296.891 848.047 296.025C847.575 295.159 847.411 294.158 847.582 293.187C847.861 290.651 850.857 289.707 853.093 290.103L860.038 291.903C861.109 292.18 862.096 292.718 862.909 293.468C863.723 294.218 864.339 295.158 864.702 296.203C867.845 305.253 875.491 329.084 868.356 327.82L850.79 324.708C849.763 324.497 848.836 323.95 848.155 323.153C847.474 322.357 847.078 321.356 847.029 320.309Z" fill="#E98862"/>
<path d="M555.143 137.094C555.143 137.094 544.793 128.136 543.361 109.015C542.252 94.215 555.143 104.615 555.143 104.615C555.143 104.615 554.448 93.947 562.078 95.515C569.708 97.083 573.278 108.477 573.278 108.477" fill="#0C0C0C"/>
<path d="M601.815 99.421C601.815 99.421 639.765 106.08 622.476 156.95H612.182" fill="#0C0C0C"/>
<path d="M628.916 795.335C628.916 795.335 641.06 815.845 625.526 831.356C609.992 846.867 625.126 856.778 625.126 856.778L687.795 801.237L660.045 769.926L628.916 795.335Z" fill="#367CFF"/>
<path d="M522.285 391.045C522.285 391.045 515.228 594.515 516.125 604.445C519.519 642.008 630.063 812.218 630.063 812.218L671.226 777.072L618.662 670.6L585.431 596.4C585.431 596.4 591.151 532.585 606.57 473.327C614.459 442.914 619.207 411.771 620.739 380.389L522.285 391.045Z" fill="#262626"/>
<path d="M626.889 813.352C626.889 813.352 622.374 836.752 600.461 838.061C578.548 839.37 583.303 856.822 583.303 856.822H667.042V814.985L626.889 813.352Z" fill="#367CFF"/>
<path d="M672.718 386.422C672.718 386.422 672.455 379.387 672.511 395.346C672.718 454.875 670.735 828.289 670.735 828.289L615.709 827.827L582.376 384L672.718 386.422Z" fill="#262626"/>
<path d="M593.677 535.295L589.164 466.286C589.164 466.286 584.529 494.975 584.529 519.703C584.529 531.79 587.019 579.645 587.019 579.645L593.677 535.295Z" fill="#0A0A0A"/>
<path d="M601.016 631.199L612.462 784.599L601.748 767.362L590.796 608.382L601.016 631.199Z" fill="#0A0A0A"/>
<path d="M559.076 209.836C559.244 209.814 561.113 240.827 597.142 238.124C622.084 236.255 630.977 209.792 631.549 209.792C628.86 209.221 625.536 208.353 624.215 208.056C621.336 207.388 618.729 205.859 616.741 203.673C614.753 201.487 613.477 198.748 613.084 195.819C612.354 191.419 613.592 168.933 613.211 164.485L574.925 173.031C575.459 182.424 579.204 204.201 566.081 208.056C563.897 208.693 561.545 209.279 559.076 209.836Z" fill="#E98862"/>
<path opacity="0.52" d="M574.388 199.156C574.987 197.223 575.373 195.231 575.539 193.214C575.96 188.612 575.876 183.977 575.289 179.393C583.071 178.342 590.402 175.13 596.45 170.122C597.161 172.748 601.07 184.222 599.988 186.715C597.942 191.432 588.326 199.156 574.388 199.156Z" fill="#0C0C0C"/>
<path d="M581.183 191.663C596.345 191.321 615.02 183.008 616.651 162.568L618.123 144.125C619.754 123.685 610.341 106.259 591.096 104.725C571.85 103.189 556.143 118.611 554.513 139.051L553.861 147.216C553.686 150.023 553.703 152.839 553.911 155.644C554.411 163.062 555.189 174.344 559.672 182.237C563.903 189.689 571.497 191.881 581.183 191.663Z" fill="#E98862"/>
<path opacity="0.52" d="M575.444 172.5C572.324 172.432 569.264 171.633 566.511 170.165C566.452 170.137 566.399 170.098 566.356 170.049C566.312 170.001 566.279 169.944 566.258 169.882C566.237 169.821 566.229 169.755 566.233 169.691C566.238 169.626 566.255 169.562 566.285 169.504C566.314 169.446 566.355 169.394 566.405 169.352C566.455 169.31 566.512 169.279 566.575 169.26C566.637 169.24 566.702 169.234 566.767 169.24C566.832 169.246 566.895 169.266 566.952 169.297C572.894 172.315 578.474 172.306 583.088 169.269C583.181 169.204 583.277 169.145 583.377 169.091C583.493 169.034 583.627 169.026 583.749 169.068C583.871 169.11 583.972 169.199 584.029 169.315C584.086 169.431 584.094 169.565 584.052 169.687C584.01 169.81 583.921 169.91 583.805 169.967C583.768 169.987 583.705 170.028 583.624 170.083C581.198 171.685 578.35 172.526 575.444 172.5Z" fill="#0C0C0C"/>
<path opacity="0.52" d="M575.28 177.113C574.717 177.11 574.156 177.059 573.603 176.96C573.475 176.938 573.362 176.866 573.288 176.76C573.213 176.655 573.184 176.524 573.206 176.397C573.228 176.269 573.3 176.156 573.406 176.082C573.512 176.007 573.642 175.978 573.77 176C577.112 176.584 578.822 175.149 578.894 175.087C578.991 175.002 579.118 174.959 579.247 174.967C579.376 174.976 579.496 175.035 579.581 175.133C579.666 175.23 579.709 175.357 579.701 175.486C579.692 175.615 579.633 175.735 579.536 175.82C578.309 176.73 576.805 177.187 575.28 177.113Z" fill="#0C0C0C"/>
<path d="M560.221 148.586C561.534 148.586 562.599 147.521 562.599 146.208C562.599 144.895 561.534 143.83 560.221 143.83C558.907 143.83 557.843 144.895 557.843 146.208C557.843 147.521 558.907 148.586 560.221 148.586Z" fill="#0C0C0C"/>
<path d="M582.259 148.736C583.572 148.736 584.637 147.671 584.637 146.358C584.637 145.045 583.572 143.98 582.259 143.98C580.946 143.98 579.881 145.045 579.881 146.358C579.881 147.671 580.946 148.736 582.259 148.736Z" fill="#0C0C0C"/>
<path d="M614.959 168.7C620.808 169.166 626.048 163.288 626.515 157.439C626.982 151.59 622.498 147.987 616.649 147.52L613.323 151.2L609.931 168.3L614.959 168.7Z" fill="#E98862"/>
<path d="M514.312 278.113C515.447 291.445 520.968 374.623 522.058 391.045H672.431C673.28 376.234 677.095 311.469 680.316 282.506C683.391 254.868 689.424 240.031 685.001 231.86C677.775 218.506 658.03 211.789 644.566 209.966C636.344 208.854 623.978 208.056 623.978 208.056C623.978 208.056 622.932 229.236 597.966 230.415C563.98 232.015 566.25 208.056 566.081 208.056C553.743 208.056 530.39 211.008 521.429 217.102C501.277 230.805 511.903 249.86 514.312 278.113Z" fill="#367CFF"/>
<path d="M609.766 158.9C609.766 158.9 609.729 129.821 601.066 127.445C595.3 125.863 580.566 133.205 567.605 129.821C561.934 128.34 556.385 129.397 555.648 132.073C555.357 133.133 552.813 117.453 562.594 106.338C570.381 97.489 593.994 96.425 604.456 100.199C633.415 110.648 617.766 148.873 617.766 148.873L615.78 158.765L609.766 158.9Z" fill="#0C0C0C"/>
<g opacity="0.52">
<path d="M572.363 165.427H572.326C570.441 165.282 567.295 164.827 567.402 163.417C567.494 162.249 571.665 149.883 572.141 148.477C572.161 148.417 572.193 148.362 572.234 148.314C572.276 148.267 572.327 148.228 572.383 148.2C572.44 148.172 572.502 148.155 572.565 148.151C572.628 148.147 572.691 148.155 572.751 148.175C572.811 148.195 572.866 148.227 572.914 148.269C572.961 148.31 573 148.361 573.028 148.417C573.056 148.474 573.073 148.536 573.077 148.599C573.081 148.662 573.073 148.725 573.053 148.785C571.201 154.262 568.425 162.698 568.363 163.491C568.522 163.839 570.448 164.316 572.399 164.467C572.522 164.478 572.636 164.536 572.717 164.629C572.799 164.721 572.842 164.842 572.837 164.965C572.833 165.088 572.781 165.205 572.693 165.292C572.604 165.378 572.486 165.427 572.363 165.429V165.427Z" fill="#0C0C0C"/>
</g>
<path d="M566.903 138.908C566.161 138.597 565.381 138.386 564.583 138.283C563.756 138.169 562.918 138.169 562.091 138.283C561.259 138.387 560.448 138.617 559.686 138.964C558.908 139.314 558.177 139.76 557.51 140.292L557.457 140.332C557.284 140.459 557.07 140.515 556.857 140.488C556.644 140.461 556.451 140.353 556.315 140.187C556.18 140.021 556.115 139.809 556.132 139.595C556.149 139.381 556.248 139.183 556.408 139.04C557.147 138.353 557.97 137.763 558.857 137.282C559.757 136.79 560.726 136.435 561.731 136.231C563.783 135.799 565.913 135.932 567.896 136.614C568.051 136.669 568.194 136.753 568.316 136.863C568.438 136.973 568.538 137.106 568.609 137.254C568.68 137.402 568.721 137.563 568.73 137.727C568.739 137.892 568.715 138.056 568.661 138.211C568.606 138.366 568.522 138.509 568.412 138.631C568.302 138.754 568.169 138.853 568.021 138.924C567.872 138.995 567.712 139.036 567.547 139.045C567.383 139.054 567.219 139.031 567.064 138.976C567.034 138.965 567.005 138.954 566.976 138.941L566.903 138.908Z" fill="#0C0C0C"/>
<path d="M580.862 136.812C581.861 136.461 582.905 136.255 583.962 136.2C584.989 136.136 586.02 136.213 587.027 136.429C588.032 136.634 589 136.988 589.9 137.48C590.787 137.961 591.61 138.553 592.349 139.24C592.512 139.381 592.614 139.58 592.633 139.796C592.653 140.011 592.587 140.225 592.452 140.393C592.316 140.561 592.12 140.669 591.906 140.695C591.691 140.722 591.475 140.663 591.303 140.533L591.247 140.491C590.58 139.959 589.849 139.513 589.071 139.163C588.31 138.816 587.501 138.586 586.671 138.481C585.844 138.367 585.006 138.367 584.18 138.481C583.382 138.584 582.601 138.795 581.859 139.106L581.789 139.137C581.638 139.204 581.476 139.24 581.312 139.244C581.148 139.248 580.984 139.219 580.831 139.16C580.677 139.101 580.537 139.012 580.418 138.898C580.299 138.785 580.204 138.649 580.137 138.499C580.071 138.348 580.035 138.186 580.031 138.022C580.027 137.857 580.055 137.694 580.114 137.541C580.174 137.387 580.263 137.247 580.376 137.128C580.49 137.009 580.625 136.914 580.776 136.847C580.803 136.835 580.832 136.822 580.862 136.812Z" fill="#0C0C0C"/>
<path d="M582.895 107.835C584.655 101.547 582.618 95.4805 578.346 94.285C574.075 93.0895 569.185 97.2178 567.425 103.506C565.665 109.794 567.702 115.861 571.974 117.056C576.245 118.252 581.135 114.123 582.895 107.835Z" fill="#0C0C0C"/>
<path d="M508.454 412.774C509.074 412.561 509.64 412.213 510.11 411.756C510.58 411.298 510.942 410.742 511.171 410.127C511.4 409.512 511.489 408.854 511.433 408.2C511.377 407.547 511.176 406.914 510.846 406.347L513.746 411.308C514.313 412.326 515.245 413.09 516.354 413.447C517.463 413.804 518.667 413.727 519.721 413.231C520.256 412.956 520.73 412.575 521.112 412.111C521.495 411.646 521.78 411.109 521.948 410.532C522.117 409.954 522.166 409.348 522.092 408.751C522.019 408.154 521.824 407.578 521.521 407.058L522.832 409.304C523.344 410.216 524.155 410.923 525.128 411.306C526.101 411.688 527.177 411.723 528.173 411.404C528.793 411.191 529.359 410.843 529.829 410.385C530.299 409.927 530.661 409.371 530.89 408.756C531.119 408.141 531.209 407.483 531.152 406.829C531.096 406.176 530.895 405.543 530.565 404.976L528.265 401.043C528.857 402.057 529.828 402.795 530.964 403.093C532.1 403.391 533.308 403.226 534.323 402.634C536.647 401.476 536.493 398.284 535.329 396.289L531.006 388.238L533.862 390.499C534.79 391.204 535.951 391.53 537.11 391.412C538.269 391.294 539.34 390.74 540.107 389.863C540.487 389.396 540.767 388.857 540.932 388.278C541.097 387.7 541.142 387.093 541.064 386.497C540.987 385.9 540.789 385.325 540.482 384.808C540.175 384.29 539.766 383.84 539.28 383.486L513.297 367.1L494.549 368.419C491.832 371.935 490.227 376.182 489.939 380.615C489.652 385.049 490.695 389.468 492.935 393.305L503.113 410.669C503.624 411.582 504.435 412.29 505.408 412.673C506.381 413.057 507.457 413.092 508.454 412.774Z" fill="#E98862"/>
<path d="M525.339 396.124C525.328 396.028 525.351 395.93 525.405 395.849C525.458 395.768 525.538 395.708 525.631 395.68C525.723 395.652 525.823 395.657 525.913 395.694C526.002 395.731 526.076 395.799 526.121 395.885L528.984 401.338C529.009 401.386 529.025 401.439 529.03 401.494C529.035 401.548 529.029 401.603 529.013 401.655C528.996 401.707 528.97 401.756 528.935 401.798C528.9 401.84 528.857 401.875 528.809 401.9C528.76 401.925 528.707 401.941 528.653 401.946C528.599 401.951 528.544 401.945 528.491 401.929C528.439 401.913 528.391 401.886 528.349 401.851C528.307 401.816 528.272 401.773 528.247 401.725L525.384 396.272C525.36 396.226 525.345 396.175 525.339 396.124Z" fill="#E98862"/>
<path d="M517.628 400.184C517.618 400.088 517.642 399.992 517.695 399.912C517.748 399.831 517.827 399.772 517.919 399.743C518.011 399.715 518.11 399.719 518.2 399.755C518.289 399.791 518.363 399.857 518.409 399.942L522.395 407.393C522.421 407.441 522.437 407.494 522.442 407.548C522.448 407.603 522.442 407.658 522.426 407.71C522.411 407.762 522.385 407.811 522.35 407.853C522.315 407.896 522.273 407.931 522.224 407.956C522.176 407.982 522.123 407.998 522.069 408.004C522.015 408.009 521.96 408.004 521.907 407.988C521.855 407.972 521.806 407.946 521.764 407.911C521.722 407.877 521.687 407.834 521.661 407.786L517.675 400.335C517.65 400.288 517.634 400.237 517.628 400.184Z" fill="#E98862"/>
<path d="M509.252 404.534C509.241 404.437 509.265 404.339 509.319 404.258C509.373 404.177 509.453 404.117 509.547 404.089C509.64 404.062 509.741 404.068 509.83 404.106C509.92 404.145 509.993 404.214 510.037 404.301L511.837 407.864C511.887 407.963 511.895 408.077 511.861 408.182C511.827 408.287 511.752 408.374 511.653 408.424C511.555 408.473 511.441 408.482 511.336 408.448C511.231 408.413 511.144 408.339 511.094 408.24L509.294 404.676C509.271 404.632 509.257 404.583 509.252 404.534Z" fill="#E98862"/>
<path opacity="0.2" d="M525.339 396.124C525.328 396.028 525.351 395.93 525.405 395.849C525.458 395.768 525.538 395.708 525.631 395.68C525.723 395.652 525.823 395.657 525.913 395.694C526.002 395.731 526.076 395.799 526.121 395.885L528.984 401.338C529.009 401.386 529.025 401.439 529.03 401.494C529.035 401.548 529.029 401.603 529.013 401.655C528.996 401.707 528.97 401.756 528.935 401.798C528.9 401.84 528.857 401.875 528.809 401.9C528.76 401.925 528.707 401.941 528.653 401.946C528.599 401.951 528.544 401.945 528.491 401.929C528.439 401.913 528.391 401.886 528.349 401.851C528.307 401.816 528.272 401.773 528.247 401.725L525.384 396.272C525.36 396.226 525.345 396.175 525.339 396.124Z" fill="#0C0C0C"/>
<path opacity="0.2" d="M517.628 400.184C517.618 400.088 517.642 399.992 517.695 399.912C517.748 399.831 517.827 399.772 517.919 399.743C518.011 399.715 518.11 399.719 518.2 399.755C518.289 399.791 518.363 399.857 518.409 399.942L522.395 407.393C522.421 407.441 522.437 407.494 522.442 407.548C522.448 407.603 522.442 407.658 522.426 407.71C522.411 407.762 522.385 407.811 522.35 407.853C522.315 407.896 522.273 407.931 522.224 407.956C522.176 407.982 522.123 407.998 522.069 408.004C522.015 408.009 521.96 408.004 521.907 407.988C521.855 407.972 521.806 407.946 521.764 407.911C521.722 407.877 521.687 407.834 521.661 407.786L517.675 400.335C517.65 400.288 517.634 400.237 517.628 400.184Z" fill="#0C0C0C"/>
<path opacity="0.2" d="M509.252 404.534C509.241 404.437 509.265 404.339 509.319 404.258C509.373 404.177 509.453 404.117 509.547 404.089C509.64 404.062 509.741 404.068 509.83 404.106C509.92 404.145 509.993 404.214 510.037 404.301L511.837 407.864C511.887 407.963 511.895 408.077 511.861 408.182C511.827 408.287 511.752 408.374 511.653 408.424C511.555 408.473 511.441 408.482 511.336 408.448C511.231 408.413 511.144 408.339 511.094 408.24L509.294 404.676C509.271 404.632 509.257 404.583 509.252 404.534Z" fill="#0C0C0C"/>
<path d="M548.038 268.445C548.038 268.445 535.969 211.862 522.277 216.574C511.412 220.312 429.79 287.574 427.313 290.013C421.857 295.384 418.757 302.702 418.696 310.357C418.636 318.013 421.619 325.379 426.989 330.836L490.519 403.526L527.184 369.158L478.971 317.058L548.038 268.445Z" fill="#367CFF"/>
<path d="M515.143 292.952C515.046 292.951 514.952 292.914 514.881 292.848C514.809 292.782 514.765 292.691 514.758 292.594L513.144 270.223C513.14 270.172 513.146 270.122 513.162 270.073C513.178 270.025 513.203 269.981 513.236 269.942C513.269 269.904 513.31 269.872 513.355 269.849C513.4 269.826 513.449 269.813 513.5 269.809C513.551 269.804 513.602 269.81 513.651 269.825C513.699 269.841 513.744 269.866 513.783 269.899C513.822 269.932 513.854 269.973 513.876 270.019C513.899 270.064 513.913 270.114 513.916 270.165L515.529 292.536C515.533 292.587 515.527 292.637 515.511 292.686C515.495 292.734 515.47 292.779 515.437 292.817C515.404 292.855 515.364 292.887 515.318 292.91C515.273 292.933 515.224 292.946 515.173 292.95L515.143 292.952Z" fill="#0C0C0C"/>
<path d="M676.91 327.064H676.882C676.78 327.059 676.685 327.014 676.616 326.939C676.548 326.865 676.511 326.766 676.515 326.664L679.184 273.086C679.193 272.985 679.239 272.891 679.315 272.823C679.39 272.755 679.488 272.718 679.59 272.72C679.641 272.722 679.69 272.735 679.736 272.757C679.782 272.778 679.823 272.809 679.857 272.846C679.892 272.884 679.918 272.928 679.935 272.976C679.952 273.024 679.959 273.074 679.957 273.125L677.288 326.7C677.282 326.797 677.24 326.888 677.17 326.956C677.1 327.023 677.007 327.062 676.91 327.064Z" fill="#0C0C0C"/>
<path d="M892.844 858.036H31.3748C31.1698 858.036 30.9732 857.955 30.8282 857.81C30.6832 857.665 30.6018 857.468 30.6018 857.263C30.6018 857.058 30.6832 856.861 30.8282 856.716C30.9732 856.571 31.1698 856.49 31.3748 856.49H892.844C893.049 856.49 893.245 856.571 893.39 856.716C893.535 856.861 893.617 857.058 893.617 857.263C893.617 857.468 893.535 857.665 893.39 857.81C893.245 857.955 893.049 858.036 892.844 858.036Z" fill="#3F3F3F"/>
</svg>
