<svg width="1640" height="434" viewBox="0 0 1640 434" fill="none" xmlns="http://www.w3.org/2000/svg">
<path d="M35.2539 53.0645L15.918 112H0.341797L26.7578 40.9062H36.6699L35.2539 53.0645ZM51.3184 112L31.9336 53.0645L30.3711 40.9062H40.3809L66.9434 112H51.3184ZM50.4395 85.5352V97.0098H12.8906V85.5352H50.4395ZM86.7188 70.6914V112H72.6562V59.168H85.8887L86.7188 70.6914ZM102.637 58.8262L102.393 71.8633C101.709 71.7656 100.879 71.6842 99.9023 71.6191C98.9583 71.5215 98.0957 71.4727 97.3145 71.4727C95.3288 71.4727 93.6035 71.7331 92.1387 72.2539C90.7064 72.7422 89.502 73.4746 88.5254 74.4512C87.5814 75.4277 86.8652 76.6159 86.377 78.0156C85.9212 79.4154 85.6608 81.0104 85.5957 82.8008L82.7637 81.9219C82.7637 78.5039 83.1055 75.3626 83.7891 72.498C84.4727 69.6009 85.4655 67.0781 86.7676 64.9297C88.1022 62.7812 89.7298 61.1211 91.6504 59.9492C93.571 58.7773 95.7682 58.1914 98.2422 58.1914C99.0234 58.1914 99.821 58.2565 100.635 58.3867C101.449 58.4844 102.116 58.6309 102.637 58.8262ZM132.617 112.977C128.516 112.977 124.837 112.326 121.582 111.023C118.327 109.689 115.56 107.85 113.281 105.506C111.035 103.162 109.31 100.444 108.105 97.3516C106.901 94.2266 106.299 90.9062 106.299 87.3906V85.4375C106.299 81.4336 106.868 77.7715 108.008 74.4512C109.147 71.1309 110.775 68.25 112.891 65.8086C115.039 63.3672 117.643 61.4954 120.703 60.1934C123.763 58.8587 127.214 58.1914 131.055 58.1914C134.798 58.1914 138.118 58.8099 141.016 60.0469C143.913 61.2839 146.338 63.0417 148.291 65.3203C150.277 67.599 151.774 70.3333 152.783 73.5234C153.792 76.681 154.297 80.1966 154.297 84.0703V89.9297H112.305V80.5547H140.479V79.4805C140.479 77.5273 140.12 75.7858 139.404 74.2559C138.721 72.6934 137.679 71.4564 136.279 70.5449C134.88 69.6335 133.089 69.1777 130.908 69.1777C129.053 69.1777 127.458 69.5846 126.123 70.3984C124.788 71.2122 123.698 72.3516 122.852 73.8164C122.038 75.2812 121.419 77.0065 120.996 78.9922C120.605 80.9453 120.41 83.0938 120.41 85.4375V87.3906C120.41 89.5065 120.703 91.4596 121.289 93.25C121.908 95.0404 122.77 96.5866 123.877 97.8887C125.016 99.1908 126.383 100.2 127.979 100.916C129.606 101.632 131.445 101.99 133.496 101.99C136.035 101.99 138.395 101.502 140.576 100.525C142.79 99.5163 144.694 98.0026 146.289 95.9844L153.125 103.406C152.018 105.001 150.505 106.531 148.584 107.996C146.696 109.461 144.417 110.665 141.748 111.609C139.079 112.521 136.035 112.977 132.617 112.977ZM197.852 40.9062L212.695 73.3281L227.539 40.9062H243.506L220.117 86.1211V112H205.273V86.1211L181.836 40.9062H197.852ZM243.652 86.1211V85.0957C243.652 81.222 244.206 77.6576 245.312 74.4023C246.419 71.1146 248.031 68.2663 250.146 65.8574C252.262 63.4486 254.867 61.5768 257.959 60.2422C261.051 58.875 264.6 58.1914 268.604 58.1914C272.607 58.1914 276.172 58.875 279.297 60.2422C282.422 61.5768 285.042 63.4486 287.158 65.8574C289.307 68.2663 290.934 71.1146 292.041 74.4023C293.148 77.6576 293.701 81.222 293.701 85.0957V86.1211C293.701 89.9622 293.148 93.5267 292.041 96.8145C290.934 100.07 289.307 102.918 287.158 105.359C285.042 107.768 282.438 109.64 279.346 110.975C276.253 112.309 272.705 112.977 268.701 112.977C264.697 112.977 261.133 112.309 258.008 110.975C254.915 109.64 252.295 107.768 250.146 105.359C248.031 102.918 246.419 100.07 245.312 96.8145C244.206 93.5267 243.652 89.9622 243.652 86.1211ZM257.715 85.0957V86.1211C257.715 88.3346 257.91 90.4017 258.301 92.3223C258.691 94.2428 259.31 95.9355 260.156 97.4004C261.035 98.8327 262.174 99.9557 263.574 100.77C264.974 101.583 266.683 101.99 268.701 101.99C270.654 101.99 272.331 101.583 273.73 100.77C275.13 99.9557 276.253 98.8327 277.1 97.4004C277.946 95.9355 278.564 94.2428 278.955 92.3223C279.378 90.4017 279.59 88.3346 279.59 86.1211V85.0957C279.59 82.9473 279.378 80.929 278.955 79.041C278.564 77.1204 277.93 75.4277 277.051 73.9629C276.204 72.4655 275.081 71.2936 273.682 70.4473C272.282 69.6009 270.589 69.1777 268.604 69.1777C266.618 69.1777 264.925 69.6009 263.525 70.4473C262.158 71.2936 261.035 72.4655 260.156 73.9629C259.31 75.4277 258.691 77.1204 258.301 79.041C257.91 80.929 257.715 82.9473 257.715 85.0957ZM333.594 99.3535V59.168H347.656V112H334.424L333.594 99.3535ZM335.156 88.5137L339.307 88.416C339.307 91.9316 338.9 95.2031 338.086 98.2305C337.272 101.225 336.051 103.829 334.424 106.043C332.796 108.224 330.745 109.933 328.271 111.17C325.798 112.374 322.884 112.977 319.531 112.977C316.96 112.977 314.583 112.618 312.402 111.902C310.254 111.154 308.398 109.998 306.836 108.436C305.306 106.84 304.102 104.806 303.223 102.332C302.376 99.8255 301.953 96.8145 301.953 93.2988V59.168H316.016V93.3965C316.016 94.959 316.195 96.2773 316.553 97.3516C316.943 98.4258 317.48 99.3047 318.164 99.9883C318.848 100.672 319.645 101.16 320.557 101.453C321.501 101.746 322.542 101.893 323.682 101.893C326.579 101.893 328.857 101.307 330.518 100.135C332.21 98.9629 333.398 97.3678 334.082 95.3496C334.798 93.2988 335.156 91.0202 335.156 88.5137ZM429.883 100.574V112H394.092V100.574H429.883ZM398.828 40.9062V112H384.18V40.9062H398.828ZM435.156 86.1211V85.0957C435.156 81.222 435.71 77.6576 436.816 74.4023C437.923 71.1146 439.535 68.2663 441.65 65.8574C443.766 63.4486 446.37 61.5768 449.463 60.2422C452.555 58.875 456.104 58.1914 460.107 58.1914C464.111 58.1914 467.676 58.875 470.801 60.2422C473.926 61.5768 476.546 63.4486 478.662 65.8574C480.811 68.2663 482.438 71.1146 483.545 74.4023C484.652 77.6576 485.205 81.222 485.205 85.0957V86.1211C485.205 89.9622 484.652 93.5267 483.545 96.8145C482.438 100.07 480.811 102.918 478.662 105.359C476.546 107.768 473.942 109.64 470.85 110.975C467.757 112.309 464.209 112.977 460.205 112.977C456.201 112.977 452.637 112.309 449.512 110.975C446.419 109.64 443.799 107.768 441.65 105.359C439.535 102.918 437.923 100.07 436.816 96.8145C435.71 93.5267 435.156 89.9622 435.156 86.1211ZM449.219 85.0957V86.1211C449.219 88.3346 449.414 90.4017 449.805 92.3223C450.195 94.2428 450.814 95.9355 451.66 97.4004C452.539 98.8327 453.678 99.9557 455.078 100.77C456.478 101.583 458.187 101.99 460.205 101.99C462.158 101.99 463.835 101.583 465.234 100.77C466.634 99.9557 467.757 98.8327 468.604 97.4004C469.45 95.9355 470.068 94.2428 470.459 92.3223C470.882 90.4017 471.094 88.3346 471.094 86.1211V85.0957C471.094 82.9473 470.882 80.929 470.459 79.041C470.068 77.1204 469.434 75.4277 468.555 73.9629C467.708 72.4655 466.585 71.2936 465.186 70.4473C463.786 69.6009 462.093 69.1777 460.107 69.1777C458.122 69.1777 456.429 69.6009 455.029 70.4473C453.662 71.2936 452.539 72.4655 451.66 73.9629C450.814 75.4277 450.195 77.1204 449.805 79.041C449.414 80.929 449.219 82.9473 449.219 85.0957ZM491.602 86.1211V85.0957C491.602 81.222 492.155 77.6576 493.262 74.4023C494.368 71.1146 495.98 68.2663 498.096 65.8574C500.212 63.4486 502.816 61.5768 505.908 60.2422C509.001 58.875 512.549 58.1914 516.553 58.1914C520.557 58.1914 524.121 58.875 527.246 60.2422C530.371 61.5768 532.992 63.4486 535.107 65.8574C537.256 68.2663 538.883 71.1146 539.99 74.4023C541.097 77.6576 541.65 81.222 541.65 85.0957V86.1211C541.65 89.9622 541.097 93.5267 539.99 96.8145C538.883 100.07 537.256 102.918 535.107 105.359C532.992 107.768 530.387 109.64 527.295 110.975C524.202 112.309 520.654 112.977 516.65 112.977C512.646 112.977 509.082 112.309 505.957 110.975C502.865 109.64 500.244 107.768 498.096 105.359C495.98 102.918 494.368 100.07 493.262 96.8145C492.155 93.5267 491.602 89.9622 491.602 86.1211ZM505.664 85.0957V86.1211C505.664 88.3346 505.859 90.4017 506.25 92.3223C506.641 94.2428 507.259 95.9355 508.105 97.4004C508.984 98.8327 510.124 99.9557 511.523 100.77C512.923 101.583 514.632 101.99 516.65 101.99C518.604 101.99 520.28 101.583 521.68 100.77C523.079 99.9557 524.202 98.8327 525.049 97.4004C525.895 95.9355 526.514 94.2428 526.904 92.3223C527.327 90.4017 527.539 88.3346 527.539 86.1211V85.0957C527.539 82.9473 527.327 80.929 526.904 79.041C526.514 77.1204 525.879 75.4277 525 73.9629C524.154 72.4655 523.031 71.2936 521.631 70.4473C520.231 69.6009 518.538 69.1777 516.553 69.1777C514.567 69.1777 512.874 69.6009 511.475 70.4473C510.107 71.2936 508.984 72.4655 508.105 73.9629C507.259 75.4277 506.641 77.1204 506.25 79.041C505.859 80.929 505.664 82.9473 505.664 85.0957ZM564.355 36.9512V112H550.293V36.9512H564.355ZM597.656 59.168L574.707 85.3398L562.402 97.791L557.275 87.6348L567.041 75.2324L580.762 59.168H597.656ZM583.057 112L567.432 87.5859L577.148 79.0898L599.268 112H583.057ZM618.555 59.168V112H604.443V59.168H618.555ZM603.564 45.3984C603.564 43.3477 604.281 41.6549 605.713 40.3203C607.145 38.9857 609.066 38.3184 611.475 38.3184C613.851 38.3184 615.755 38.9857 617.188 40.3203C618.652 41.6549 619.385 43.3477 619.385 45.3984C619.385 47.4492 618.652 49.1419 617.188 50.4766C615.755 51.8112 613.851 52.4785 611.475 52.4785C609.066 52.4785 607.145 51.8112 605.713 50.4766C604.281 49.1419 603.564 47.4492 603.564 45.3984ZM643.945 70.4473V112H629.883V59.168H643.066L643.945 70.4473ZM641.895 83.7285H638.086C638.086 79.8223 638.59 76.3066 639.6 73.1816C640.609 70.0241 642.025 67.3385 643.848 65.125C645.671 62.8789 647.835 61.1699 650.342 59.998C652.881 58.7936 655.713 58.1914 658.838 58.1914C661.312 58.1914 663.574 58.5495 665.625 59.2656C667.676 59.9818 669.434 61.1211 670.898 62.6836C672.396 64.2461 673.535 66.3132 674.316 68.8848C675.13 71.4564 675.537 74.5977 675.537 78.3086V112H661.377V78.2598C661.377 75.916 661.051 74.0931 660.4 72.791C659.749 71.4889 658.789 70.5775 657.52 70.0566C656.283 69.5033 654.753 69.2266 652.93 69.2266C651.042 69.2266 649.398 69.6009 647.998 70.3496C646.631 71.0983 645.492 72.14 644.58 73.4746C643.701 74.7767 643.034 76.3066 642.578 78.0645C642.122 79.8223 641.895 81.7103 641.895 83.7285ZM719.678 59.168H732.422V110.242C732.422 115.06 731.348 119.145 729.199 122.498C727.083 125.883 724.121 128.439 720.312 130.164C716.504 131.922 712.077 132.801 707.031 132.801C704.818 132.801 702.474 132.508 700 131.922C697.559 131.336 695.215 130.424 692.969 129.188C690.755 127.951 688.9 126.388 687.402 124.5L693.604 116.199C695.231 118.087 697.119 119.552 699.268 120.594C701.416 121.668 703.792 122.205 706.396 122.205C708.936 122.205 711.084 121.733 712.842 120.789C714.6 119.878 715.951 118.527 716.895 116.736C717.839 114.979 718.311 112.846 718.311 110.34V71.375L719.678 59.168ZM684.131 86.2188V85.1934C684.131 81.1569 684.619 77.4948 685.596 74.207C686.605 70.8867 688.021 68.0384 689.844 65.6621C691.699 63.2858 693.945 61.4466 696.582 60.1445C699.219 58.8424 702.197 58.1914 705.518 58.1914C709.033 58.1914 711.979 58.8424 714.355 60.1445C716.732 61.4466 718.685 63.3021 720.215 65.7109C721.745 68.0872 722.933 70.903 723.779 74.1582C724.658 77.3809 725.342 80.9128 725.83 84.7539V87C725.342 90.6784 724.609 94.0964 723.633 97.2539C722.656 100.411 721.37 103.178 719.775 105.555C718.18 107.898 716.195 109.721 713.818 111.023C711.475 112.326 708.675 112.977 705.42 112.977C702.165 112.977 699.219 112.309 696.582 110.975C693.978 109.64 691.748 107.768 689.893 105.359C688.037 102.951 686.605 100.118 685.596 96.8633C684.619 93.6081 684.131 90.0599 684.131 86.2188ZM698.193 85.1934V86.2188C698.193 88.3997 698.405 90.4342 698.828 92.3223C699.251 94.2103 699.902 95.8867 700.781 97.3516C701.693 98.7839 702.816 99.9069 704.15 100.721C705.518 101.502 707.129 101.893 708.984 101.893C711.556 101.893 713.656 101.355 715.283 100.281C716.911 99.1745 718.132 97.6608 718.945 95.7402C719.759 93.8197 720.231 91.6061 720.361 89.0996V82.7031C720.296 80.6523 720.02 78.8132 719.531 77.1855C719.043 75.5254 718.359 74.1094 717.48 72.9375C716.602 71.7656 715.462 70.8542 714.062 70.2031C712.663 69.5521 711.003 69.2266 709.082 69.2266C707.227 69.2266 705.615 69.6497 704.248 70.4961C702.913 71.3099 701.79 72.4329 700.879 73.8652C700 75.2975 699.333 76.9902 698.877 78.9434C698.421 80.8639 698.193 82.9473 698.193 85.1934Z" fill="#333333"/>
<path d="M20.9961 196.906V268H6.34766V196.906H20.9961ZM49.3164 227.277V238.703H16.9922V227.277H49.3164ZM52.7344 196.906V208.381H16.9922V196.906H52.7344ZM57.0312 242.121V241.096C57.0312 237.222 57.5846 233.658 58.6914 230.402C59.7982 227.115 61.4095 224.266 63.5254 221.857C65.6413 219.449 68.2454 217.577 71.3379 216.242C74.4303 214.875 77.9785 214.191 81.9824 214.191C85.9863 214.191 89.5508 214.875 92.6758 216.242C95.8008 217.577 98.4212 219.449 100.537 221.857C102.686 224.266 104.313 227.115 105.42 230.402C106.527 233.658 107.08 237.222 107.08 241.096V242.121C107.08 245.962 106.527 249.527 105.42 252.814C104.313 256.07 102.686 258.918 100.537 261.359C98.4212 263.768 95.8171 265.64 92.7246 266.975C89.6322 268.309 86.084 268.977 82.0801 268.977C78.0762 268.977 74.5117 268.309 71.3867 266.975C68.2943 265.64 65.6738 263.768 63.5254 261.359C61.4095 258.918 59.7982 256.07 58.6914 252.814C57.5846 249.527 57.0312 245.962 57.0312 242.121ZM71.0938 241.096V242.121C71.0938 244.335 71.2891 246.402 71.6797 248.322C72.0703 250.243 72.6888 251.936 73.5352 253.4C74.4141 254.833 75.5534 255.956 76.9531 256.77C78.3529 257.583 80.0618 257.99 82.0801 257.99C84.0332 257.99 85.7096 257.583 87.1094 256.77C88.5091 255.956 89.6322 254.833 90.4785 253.4C91.3249 251.936 91.9434 250.243 92.334 248.322C92.7572 246.402 92.9688 244.335 92.9688 242.121V241.096C92.9688 238.947 92.7572 236.929 92.334 235.041C91.9434 233.12 91.3086 231.428 90.4297 229.963C89.5833 228.465 88.4603 227.294 87.0605 226.447C85.6608 225.601 83.9681 225.178 81.9824 225.178C79.9967 225.178 78.304 225.601 76.9043 226.447C75.5371 227.294 74.4141 228.465 73.5352 229.963C72.6888 231.428 72.0703 233.12 71.6797 235.041C71.2891 236.929 71.0938 238.947 71.0938 241.096ZM129.785 226.691V268H115.723V215.168H128.955L129.785 226.691ZM145.703 214.826L145.459 227.863C144.775 227.766 143.945 227.684 142.969 227.619C142.025 227.521 141.162 227.473 140.381 227.473C138.395 227.473 136.67 227.733 135.205 228.254C133.773 228.742 132.568 229.475 131.592 230.451C130.648 231.428 129.932 232.616 129.443 234.016C128.988 235.415 128.727 237.01 128.662 238.801L125.83 237.922C125.83 234.504 126.172 231.363 126.855 228.498C127.539 225.601 128.532 223.078 129.834 220.93C131.169 218.781 132.796 217.121 134.717 215.949C136.637 214.777 138.835 214.191 141.309 214.191C142.09 214.191 142.887 214.257 143.701 214.387C144.515 214.484 145.182 214.631 145.703 214.826ZM207.031 209.064L187.695 268H172.119L198.535 196.906H208.447L207.031 209.064ZM223.096 268L203.711 209.064L202.148 196.906H212.158L238.721 268H223.096ZM222.217 241.535V253.01H184.668V241.535H222.217ZM284.863 196.906V268H270.215V196.906H284.863ZM313.184 227.277V238.703H280.859V227.277H313.184ZM316.602 196.906V208.381H280.859V196.906H316.602ZM337.012 226.691V268H322.949V215.168H336.182L337.012 226.691ZM352.93 214.826L352.686 227.863C352.002 227.766 351.172 227.684 350.195 227.619C349.251 227.521 348.389 227.473 347.607 227.473C345.622 227.473 343.896 227.733 342.432 228.254C340.999 228.742 339.795 229.475 338.818 230.451C337.874 231.428 337.158 232.616 336.67 234.016C336.214 235.415 335.954 237.01 335.889 238.801L333.057 237.922C333.057 234.504 333.398 231.363 334.082 228.498C334.766 225.601 335.758 223.078 337.061 220.93C338.395 218.781 340.023 217.121 341.943 215.949C343.864 214.777 346.061 214.191 348.535 214.191C349.316 214.191 350.114 214.257 350.928 214.387C351.742 214.484 352.409 214.631 352.93 214.826ZM355.859 242.121V241.096C355.859 237.222 356.413 233.658 357.52 230.402C358.626 227.115 360.238 224.266 362.354 221.857C364.469 219.449 367.074 217.577 370.166 216.242C373.258 214.875 376.807 214.191 380.811 214.191C384.814 214.191 388.379 214.875 391.504 216.242C394.629 217.577 397.249 219.449 399.365 221.857C401.514 224.266 403.141 227.115 404.248 230.402C405.355 233.658 405.908 237.222 405.908 241.096V242.121C405.908 245.962 405.355 249.527 404.248 252.814C403.141 256.07 401.514 258.918 399.365 261.359C397.249 263.768 394.645 265.64 391.553 266.975C388.46 268.309 384.912 268.977 380.908 268.977C376.904 268.977 373.34 268.309 370.215 266.975C367.122 265.64 364.502 263.768 362.354 261.359C360.238 258.918 358.626 256.07 357.52 252.814C356.413 249.527 355.859 245.962 355.859 242.121ZM369.922 241.096V242.121C369.922 244.335 370.117 246.402 370.508 248.322C370.898 250.243 371.517 251.936 372.363 253.4C373.242 254.833 374.382 255.956 375.781 256.77C377.181 257.583 378.89 257.99 380.908 257.99C382.861 257.99 384.538 257.583 385.938 256.77C387.337 255.956 388.46 254.833 389.307 253.4C390.153 251.936 390.771 250.243 391.162 248.322C391.585 246.402 391.797 244.335 391.797 242.121V241.096C391.797 238.947 391.585 236.929 391.162 235.041C390.771 233.12 390.137 231.428 389.258 229.963C388.411 228.465 387.288 227.294 385.889 226.447C384.489 225.601 382.796 225.178 380.811 225.178C378.825 225.178 377.132 225.601 375.732 226.447C374.365 227.294 373.242 228.465 372.363 229.963C371.517 231.428 370.898 233.12 370.508 235.041C370.117 236.929 369.922 238.947 369.922 241.096ZM428.32 226.447V268H414.258V215.168H427.441L428.32 226.447ZM426.27 239.729H422.461C422.461 235.822 422.965 232.307 423.975 229.182C424.984 226.024 426.4 223.339 428.223 221.125C430.046 218.879 432.21 217.17 434.717 215.998C437.256 214.794 440.088 214.191 443.213 214.191C445.687 214.191 447.949 214.549 450 215.266C452.051 215.982 453.809 217.121 455.273 218.684C456.771 220.246 457.91 222.313 458.691 224.885C459.505 227.456 459.912 230.598 459.912 234.309V268H445.752V234.26C445.752 231.916 445.426 230.093 444.775 228.791C444.124 227.489 443.164 226.577 441.895 226.057C440.658 225.503 439.128 225.227 437.305 225.227C435.417 225.227 433.773 225.601 432.373 226.35C431.006 227.098 429.867 228.14 428.955 229.475C428.076 230.777 427.409 232.307 426.953 234.064C426.497 235.822 426.27 237.71 426.27 239.729ZM496.484 215.168V225.129H465.723V215.168H496.484ZM473.34 202.131H487.402V252.082C487.402 253.612 487.598 254.784 487.988 255.598C488.411 256.411 489.03 256.981 489.844 257.307C490.658 257.6 491.683 257.746 492.92 257.746C493.799 257.746 494.58 257.714 495.264 257.648C495.98 257.551 496.582 257.453 497.07 257.355L497.119 267.707C495.915 268.098 494.613 268.407 493.213 268.635C491.813 268.863 490.267 268.977 488.574 268.977C485.482 268.977 482.78 268.472 480.469 267.463C478.19 266.421 476.432 264.761 475.195 262.482C473.958 260.204 473.34 257.209 473.34 253.498V202.131ZM532.227 231.965V243H504.639V231.965H532.227ZM592.529 256.574V268H554.688V256.574H592.529ZM559.473 196.906V268H544.824V196.906H559.473ZM587.598 225.861V236.994H554.688V225.861H587.598ZM592.48 196.906V208.381H554.688V196.906H592.48ZM613.965 226.447V268H599.902V215.168H613.086L613.965 226.447ZM611.914 239.729H608.105C608.105 235.822 608.61 232.307 609.619 229.182C610.628 226.024 612.044 223.339 613.867 221.125C615.69 218.879 617.855 217.17 620.361 215.998C622.9 214.794 625.732 214.191 628.857 214.191C631.331 214.191 633.594 214.549 635.645 215.266C637.695 215.982 639.453 217.121 640.918 218.684C642.415 220.246 643.555 222.313 644.336 224.885C645.15 227.456 645.557 230.598 645.557 234.309V268H631.396V234.26C631.396 231.916 631.071 230.093 630.42 228.791C629.769 227.489 628.809 226.577 627.539 226.057C626.302 225.503 624.772 225.227 622.949 225.227C621.061 225.227 619.417 225.601 618.018 226.35C616.65 227.098 615.511 228.14 614.6 229.475C613.721 230.777 613.053 232.307 612.598 234.064C612.142 235.822 611.914 237.71 611.914 239.729ZM687.451 256.477V193H701.611V268H688.867L687.451 256.477ZM654.053 242.219V241.193C654.053 237.157 654.508 233.495 655.42 230.207C656.331 226.887 657.666 224.038 659.424 221.662C661.182 219.286 663.346 217.447 665.918 216.145C668.49 214.842 671.419 214.191 674.707 214.191C677.799 214.191 680.501 214.842 682.812 216.145C685.156 217.447 687.142 219.302 688.77 221.711C690.43 224.087 691.764 226.903 692.773 230.158C693.783 233.381 694.515 236.913 694.971 240.754V243C694.515 246.678 693.783 250.096 692.773 253.254C691.764 256.411 690.43 259.178 688.77 261.555C687.142 263.898 685.156 265.721 682.812 267.023C680.469 268.326 677.734 268.977 674.609 268.977C671.322 268.977 668.392 268.309 665.82 266.975C663.281 265.64 661.133 263.768 659.375 261.359C657.65 258.951 656.331 256.118 655.42 252.863C654.508 249.608 654.053 246.06 654.053 242.219ZM668.115 241.193V242.219C668.115 244.4 668.278 246.434 668.604 248.322C668.962 250.21 669.531 251.887 670.312 253.352C671.126 254.784 672.168 255.907 673.438 256.721C674.74 257.502 676.318 257.893 678.174 257.893C680.583 257.893 682.568 257.355 684.131 256.281C685.693 255.174 686.882 253.661 687.695 251.74C688.542 249.82 689.03 247.606 689.16 245.1V238.703C689.062 236.652 688.77 234.813 688.281 233.186C687.826 231.525 687.142 230.109 686.23 228.938C685.352 227.766 684.245 226.854 682.91 226.203C681.608 225.552 680.062 225.227 678.271 225.227C676.449 225.227 674.886 225.65 673.584 226.496C672.282 227.31 671.224 228.433 670.41 229.865C669.629 231.298 669.043 232.99 668.652 234.943C668.294 236.864 668.115 238.947 668.115 241.193ZM760.205 268H744.727L744.824 256.574H760.205C764.046 256.574 767.285 255.712 769.922 253.986C772.559 252.229 774.544 249.673 775.879 246.32C777.246 242.967 777.93 238.915 777.93 234.162V230.695C777.93 227.049 777.539 223.843 776.758 221.076C776.009 218.309 774.886 215.982 773.389 214.094C771.891 212.206 770.052 210.79 767.871 209.846C765.69 208.869 763.184 208.381 760.352 208.381H744.434V196.906H760.352C765.104 196.906 769.45 197.72 773.389 199.348C777.36 200.943 780.794 203.238 783.691 206.232C786.589 209.227 788.818 212.808 790.381 216.975C791.976 221.109 792.773 225.715 792.773 230.793V234.162C792.773 239.208 791.976 243.814 790.381 247.98C788.818 252.147 786.589 255.728 783.691 258.723C780.827 261.685 777.393 263.98 773.389 265.607C769.417 267.202 765.023 268 760.205 268ZM753.027 196.906V268H738.379V196.906H753.027ZM826.855 268.977C822.754 268.977 819.076 268.326 815.82 267.023C812.565 265.689 809.798 263.85 807.52 261.506C805.273 259.162 803.548 256.444 802.344 253.352C801.139 250.227 800.537 246.906 800.537 243.391V241.438C800.537 237.434 801.107 233.771 802.246 230.451C803.385 227.131 805.013 224.25 807.129 221.809C809.277 219.367 811.882 217.495 814.941 216.193C818.001 214.859 821.452 214.191 825.293 214.191C829.036 214.191 832.357 214.81 835.254 216.047C838.151 217.284 840.576 219.042 842.529 221.32C844.515 223.599 846.012 226.333 847.021 229.523C848.031 232.681 848.535 236.197 848.535 240.07V245.93H806.543V236.555H834.717V235.48C834.717 233.527 834.359 231.786 833.643 230.256C832.959 228.693 831.917 227.456 830.518 226.545C829.118 225.633 827.327 225.178 825.146 225.178C823.291 225.178 821.696 225.585 820.361 226.398C819.027 227.212 817.936 228.352 817.09 229.816C816.276 231.281 815.658 233.007 815.234 234.992C814.844 236.945 814.648 239.094 814.648 241.438V243.391C814.648 245.507 814.941 247.46 815.527 249.25C816.146 251.04 817.008 252.587 818.115 253.889C819.255 255.191 820.622 256.2 822.217 256.916C823.844 257.632 825.684 257.99 827.734 257.99C830.273 257.99 832.633 257.502 834.814 256.525C837.028 255.516 838.932 254.003 840.527 251.984L847.363 259.406C846.257 261.001 844.743 262.531 842.822 263.996C840.934 265.461 838.656 266.665 835.986 267.609C833.317 268.521 830.273 268.977 826.855 268.977ZM873.828 257.746L885.547 215.168H900.244L882.422 268H873.535L873.828 257.746ZM865.771 215.168L877.539 257.795L877.783 268H868.848L851.025 215.168H865.771ZM930.176 268.977C926.074 268.977 922.396 268.326 919.141 267.023C915.885 265.689 913.118 263.85 910.84 261.506C908.594 259.162 906.868 256.444 905.664 253.352C904.46 250.227 903.857 246.906 903.857 243.391V241.438C903.857 237.434 904.427 233.771 905.566 230.451C906.706 227.131 908.333 224.25 910.449 221.809C912.598 219.367 915.202 217.495 918.262 216.193C921.322 214.859 924.772 214.191 928.613 214.191C932.357 214.191 935.677 214.81 938.574 216.047C941.471 217.284 943.896 219.042 945.85 221.32C947.835 223.599 949.333 226.333 950.342 229.523C951.351 232.681 951.855 236.197 951.855 240.07V245.93H909.863V236.555H938.037V235.48C938.037 233.527 937.679 231.786 936.963 230.256C936.279 228.693 935.238 227.456 933.838 226.545C932.438 225.633 930.648 225.178 928.467 225.178C926.611 225.178 925.016 225.585 923.682 226.398C922.347 227.212 921.257 228.352 920.41 229.816C919.596 231.281 918.978 233.007 918.555 234.992C918.164 236.945 917.969 239.094 917.969 241.438V243.391C917.969 245.507 918.262 247.46 918.848 249.25C919.466 251.04 920.329 252.587 921.436 253.889C922.575 255.191 923.942 256.2 925.537 256.916C927.165 257.632 929.004 257.99 931.055 257.99C933.594 257.99 935.954 257.502 938.135 256.525C940.348 255.516 942.253 254.003 943.848 251.984L950.684 259.406C949.577 261.001 948.063 262.531 946.143 263.996C944.255 265.461 941.976 266.665 939.307 267.609C936.637 268.521 933.594 268.977 930.176 268.977ZM974.707 193V268H960.596V193H974.707ZM984.082 242.121V241.096C984.082 237.222 984.635 233.658 985.742 230.402C986.849 227.115 988.46 224.266 990.576 221.857C992.692 219.449 995.296 217.577 998.389 216.242C1001.48 214.875 1005.03 214.191 1009.03 214.191C1013.04 214.191 1016.6 214.875 1019.73 216.242C1022.85 217.577 1025.47 219.449 1027.59 221.857C1029.74 224.266 1031.36 227.115 1032.47 230.402C1033.58 233.658 1034.13 237.222 1034.13 241.096V242.121C1034.13 245.962 1033.58 249.527 1032.47 252.814C1031.36 256.07 1029.74 258.918 1027.59 261.359C1025.47 263.768 1022.87 265.64 1019.78 266.975C1016.68 268.309 1013.13 268.977 1009.13 268.977C1005.13 268.977 1001.56 268.309 998.438 266.975C995.345 265.64 992.725 263.768 990.576 261.359C988.46 258.918 986.849 256.07 985.742 252.814C984.635 249.527 984.082 245.962 984.082 242.121ZM998.145 241.096V242.121C998.145 244.335 998.34 246.402 998.73 248.322C999.121 250.243 999.74 251.936 1000.59 253.4C1001.46 254.833 1002.6 255.956 1004 256.77C1005.4 257.583 1007.11 257.99 1009.13 257.99C1011.08 257.99 1012.76 257.583 1014.16 256.77C1015.56 255.956 1016.68 254.833 1017.53 253.4C1018.38 251.936 1018.99 250.243 1019.38 248.322C1019.81 246.402 1020.02 244.335 1020.02 242.121V241.096C1020.02 238.947 1019.81 236.929 1019.38 235.041C1018.99 233.12 1018.36 231.428 1017.48 229.963C1016.63 228.465 1015.51 227.294 1014.11 226.447C1012.71 225.601 1011.02 225.178 1009.03 225.178C1007.05 225.178 1005.35 225.601 1003.96 226.447C1002.59 227.294 1001.46 228.465 1000.59 229.963C999.74 231.428 999.121 233.12 998.73 235.041C998.34 236.929 998.145 238.947 998.145 241.096ZM1056.84 225.324V288.312H1042.77V215.168H1055.81L1056.84 225.324ZM1090.28 240.998V242.023C1090.28 245.865 1089.83 249.429 1088.92 252.717C1088.04 256.005 1086.74 258.869 1085.01 261.311C1083.28 263.719 1081.14 265.607 1078.56 266.975C1076.03 268.309 1073.1 268.977 1069.78 268.977C1066.55 268.977 1063.75 268.326 1061.38 267.023C1059 265.721 1057 263.898 1055.37 261.555C1053.78 259.178 1052.49 256.428 1051.51 253.303C1050.54 250.178 1049.79 246.825 1049.27 243.244V240.559C1049.79 236.717 1050.54 233.202 1051.51 230.012C1052.49 226.789 1053.78 224.006 1055.37 221.662C1057 219.286 1058.98 217.447 1061.33 216.145C1063.7 214.842 1066.49 214.191 1069.68 214.191C1073.03 214.191 1075.98 214.826 1078.52 216.096C1081.09 217.365 1083.24 219.188 1084.96 221.564C1086.72 223.941 1088.04 226.773 1088.92 230.061C1089.83 233.348 1090.28 236.994 1090.28 240.998ZM1076.17 242.023V240.998C1076.17 238.752 1075.98 236.685 1075.59 234.797C1075.23 232.876 1074.64 231.2 1073.83 229.768C1073.05 228.335 1072.01 227.229 1070.7 226.447C1069.43 225.633 1067.89 225.227 1066.06 225.227C1064.14 225.227 1062.5 225.536 1061.13 226.154C1059.8 226.773 1058.71 227.668 1057.86 228.84C1057.01 230.012 1056.38 231.411 1055.96 233.039C1055.53 234.667 1055.27 236.506 1055.18 238.557V245.344C1055.34 247.753 1055.79 249.917 1056.54 251.838C1057.29 253.726 1058.45 255.223 1060.01 256.33C1061.57 257.437 1063.62 257.99 1066.16 257.99C1068.02 257.99 1069.58 257.583 1070.85 256.77C1072.12 255.923 1073.14 254.768 1073.93 253.303C1074.74 251.838 1075.31 250.145 1075.63 248.225C1075.99 246.304 1076.17 244.237 1076.17 242.023ZM1123.34 268.977C1119.24 268.977 1115.56 268.326 1112.3 267.023C1109.05 265.689 1106.28 263.85 1104 261.506C1101.76 259.162 1100.03 256.444 1098.83 253.352C1097.62 250.227 1097.02 246.906 1097.02 243.391V241.438C1097.02 237.434 1097.59 233.771 1098.73 230.451C1099.87 227.131 1101.5 224.25 1103.61 221.809C1105.76 219.367 1108.37 217.495 1111.43 216.193C1114.49 214.859 1117.94 214.191 1121.78 214.191C1125.52 214.191 1128.84 214.81 1131.74 216.047C1134.64 217.284 1137.06 219.042 1139.01 221.32C1141 223.599 1142.5 226.333 1143.51 229.523C1144.51 232.681 1145.02 236.197 1145.02 240.07V245.93H1103.03V236.555H1131.2V235.48C1131.2 233.527 1130.84 231.786 1130.13 230.256C1129.44 228.693 1128.4 227.456 1127 226.545C1125.6 225.633 1123.81 225.178 1121.63 225.178C1119.78 225.178 1118.18 225.585 1116.85 226.398C1115.51 227.212 1114.42 228.352 1113.57 229.816C1112.76 231.281 1112.14 233.007 1111.72 234.992C1111.33 236.945 1111.13 239.094 1111.13 241.438V243.391C1111.13 245.507 1111.43 247.46 1112.01 249.25C1112.63 251.04 1113.49 252.587 1114.6 253.889C1115.74 255.191 1117.11 256.2 1118.7 256.916C1120.33 257.632 1122.17 257.99 1124.22 257.99C1126.76 257.99 1129.12 257.502 1131.3 256.525C1133.51 255.516 1135.42 254.003 1137.01 251.984L1143.85 259.406C1142.74 261.001 1141.23 262.531 1139.31 263.996C1137.42 265.461 1135.14 266.665 1132.47 267.609C1129.8 268.521 1126.76 268.977 1123.34 268.977ZM1167.09 226.691V268H1153.03V215.168H1166.26L1167.09 226.691ZM1183.01 214.826L1182.76 227.863C1182.08 227.766 1181.25 227.684 1180.27 227.619C1179.33 227.521 1178.47 227.473 1177.69 227.473C1175.7 227.473 1173.97 227.733 1172.51 228.254C1171.08 228.742 1169.87 229.475 1168.9 230.451C1167.95 231.428 1167.24 232.616 1166.75 234.016C1166.29 235.415 1166.03 237.01 1165.97 238.801L1163.13 237.922C1163.13 234.504 1163.48 231.363 1164.16 228.498C1164.84 225.601 1165.84 223.078 1167.14 220.93C1168.47 218.781 1170.1 217.121 1172.02 215.949C1173.94 214.777 1176.14 214.191 1178.61 214.191C1179.39 214.191 1180.19 214.257 1181.01 214.387C1181.82 214.484 1182.49 214.631 1183.01 214.826ZM1238.53 246.271H1226.07C1226.11 243.342 1226.33 240.819 1226.76 238.703C1227.21 236.555 1227.98 234.618 1229.05 232.893C1230.16 231.167 1231.62 229.458 1233.45 227.766C1234.98 226.398 1236.31 225.096 1237.45 223.859C1238.59 222.622 1239.49 221.353 1240.14 220.051C1240.79 218.716 1241.11 217.235 1241.11 215.607C1241.11 213.719 1240.82 212.157 1240.23 210.92C1239.68 209.65 1238.83 208.69 1237.7 208.039C1236.59 207.388 1235.19 207.062 1233.5 207.062C1232.1 207.062 1230.79 207.372 1229.59 207.99C1228.39 208.576 1227.39 209.488 1226.61 210.725C1225.86 211.962 1225.47 213.589 1225.44 215.607H1211.28C1211.38 211.148 1212.4 207.469 1214.36 204.572C1216.34 201.643 1218.99 199.478 1222.31 198.078C1225.63 196.646 1229.36 195.93 1233.5 195.93C1238.05 195.93 1241.96 196.678 1245.21 198.176C1248.47 199.641 1250.96 201.805 1252.69 204.67C1254.41 207.502 1255.27 210.952 1255.27 215.021C1255.27 217.854 1254.72 220.376 1253.61 222.59C1252.51 224.771 1251.06 226.805 1249.27 228.693C1247.48 230.581 1245.51 232.535 1243.36 234.553C1241.5 236.213 1240.23 237.954 1239.55 239.777C1238.9 241.6 1238.56 243.765 1238.53 246.271ZM1224.61 261.359C1224.61 259.276 1225.33 257.551 1226.76 256.184C1228.19 254.784 1230.11 254.084 1232.52 254.084C1234.9 254.084 1236.8 254.784 1238.23 256.184C1239.7 257.551 1240.43 259.276 1240.43 261.359C1240.43 263.378 1239.7 265.087 1238.23 266.486C1236.8 267.886 1234.9 268.586 1232.52 268.586C1230.11 268.586 1228.19 267.886 1226.76 266.486C1225.33 265.087 1224.61 263.378 1224.61 261.359Z" fill="#E44D26"/>
<path d="M41.1719 369.336L48.3984 369.297C48.3984 371.536 48.0859 373.607 47.4609 375.508C46.8359 377.383 45.9505 379.01 44.8047 380.391C43.6849 381.771 42.3307 382.852 40.7422 383.633C39.1797 384.388 37.4609 384.766 35.5859 384.766C33.3984 384.766 31.4583 384.336 29.7656 383.477C28.099 382.591 26.3021 381.263 24.375 379.492C23.1771 378.346 22.0573 377.474 21.0156 376.875C19.974 376.25 18.8542 375.938 17.6562 375.938C16.4844 375.938 15.4818 376.25 14.6484 376.875C13.8151 377.474 13.1641 378.333 12.6953 379.453C12.2266 380.573 11.9922 381.875 11.9922 383.359H4.57031C4.57031 381.094 4.88281 379.036 5.50781 377.188C6.13281 375.312 7.00521 373.711 8.125 372.383C9.27083 371.029 10.625 369.987 12.1875 369.258C13.75 368.529 15.4688 368.164 17.3438 368.164C19.5312 368.164 21.4974 368.62 23.2422 369.531C25.013 370.443 26.8099 371.745 28.6328 373.438C29.8828 374.635 31.0156 375.534 32.0312 376.133C33.0469 376.732 34.1276 377.031 35.2734 377.031C36.4453 377.031 37.474 376.706 38.3594 376.055C39.2448 375.378 39.9349 374.453 40.4297 373.281C40.9245 372.109 41.1719 370.794 41.1719 369.336ZM89.2188 343.125V400H79.4141V343.125H89.2188ZM143.477 350.703L126.484 400H116.211L137.617 343.125H144.18L143.477 350.703ZM157.695 400L140.664 350.703L139.922 343.125H146.523L168.008 400H157.695ZM156.875 378.906V386.68H125.938V378.906H156.875ZM182.148 366.328V400H172.734V357.734H181.602L182.148 366.328ZM180.625 377.305L177.422 377.266C177.422 374.349 177.786 371.654 178.516 369.18C179.245 366.706 180.312 364.557 181.719 362.734C183.125 360.885 184.87 359.466 186.953 358.477C189.062 357.461 191.497 356.953 194.258 356.953C196.185 356.953 197.943 357.24 199.531 357.812C201.146 358.359 202.539 359.232 203.711 360.43C204.909 361.628 205.82 363.164 206.445 365.039C207.096 366.914 207.422 369.18 207.422 371.836V400H198.008V372.656C198.008 370.599 197.695 368.984 197.07 367.812C196.471 366.641 195.599 365.807 194.453 365.312C193.333 364.792 191.992 364.531 190.43 364.531C188.659 364.531 187.148 364.87 185.898 365.547C184.674 366.224 183.672 367.148 182.891 368.32C182.109 369.492 181.536 370.846 181.172 372.383C180.807 373.919 180.625 375.56 180.625 377.305ZM206.836 374.805L202.422 375.781C202.422 373.229 202.773 370.82 203.477 368.555C204.206 366.263 205.26 364.258 206.641 362.539C208.047 360.794 209.779 359.427 211.836 358.438C213.893 357.448 216.25 356.953 218.906 356.953C221.068 356.953 222.995 357.253 224.688 357.852C226.406 358.424 227.865 359.336 229.062 360.586C230.26 361.836 231.172 363.464 231.797 365.469C232.422 367.448 232.734 369.844 232.734 372.656V400H223.281V372.617C223.281 370.482 222.969 368.828 222.344 367.656C221.745 366.484 220.885 365.677 219.766 365.234C218.646 364.766 217.305 364.531 215.742 364.531C214.284 364.531 212.995 364.805 211.875 365.352C210.781 365.872 209.857 366.615 209.102 367.578C208.346 368.516 207.773 369.596 207.383 370.82C207.018 372.044 206.836 373.372 206.836 374.805ZM300.859 366.875V374.648H270.664V366.875H300.859ZM273.086 343.125V400H263.281V343.125H273.086ZM308.398 343.125V400H298.633V343.125H308.398ZM337.773 400.781C334.648 400.781 331.823 400.273 329.297 399.258C326.797 398.216 324.661 396.771 322.891 394.922C321.146 393.073 319.805 390.898 318.867 388.398C317.93 385.898 317.461 383.203 317.461 380.312V378.75C317.461 375.443 317.943 372.448 318.906 369.766C319.87 367.083 321.211 364.792 322.93 362.891C324.648 360.964 326.68 359.492 329.023 358.477C331.367 357.461 333.906 356.953 336.641 356.953C339.661 356.953 342.305 357.461 344.57 358.477C346.836 359.492 348.711 360.924 350.195 362.773C351.706 364.596 352.826 366.771 353.555 369.297C354.31 371.823 354.688 374.609 354.688 377.656V381.68H322.031V374.922H345.391V374.18C345.339 372.487 345 370.898 344.375 369.414C343.776 367.93 342.852 366.732 341.602 365.82C340.352 364.909 338.685 364.453 336.602 364.453C335.039 364.453 333.646 364.792 332.422 365.469C331.224 366.12 330.221 367.07 329.414 368.32C328.607 369.57 327.982 371.081 327.539 372.852C327.122 374.596 326.914 376.562 326.914 378.75V380.312C326.914 382.161 327.161 383.88 327.656 385.469C328.177 387.031 328.932 388.398 329.922 389.57C330.911 390.742 332.109 391.667 333.516 392.344C334.922 392.995 336.523 393.32 338.32 393.32C340.586 393.32 342.604 392.865 344.375 391.953C346.146 391.042 347.682 389.753 348.984 388.086L353.945 392.891C353.034 394.219 351.849 395.495 350.391 396.719C348.932 397.917 347.148 398.893 345.039 399.648C342.956 400.404 340.534 400.781 337.773 400.781ZM371.484 365.781V400H362.07V357.734H371.055L371.484 365.781ZM384.414 357.461L384.336 366.211C383.763 366.107 383.138 366.029 382.461 365.977C381.81 365.924 381.159 365.898 380.508 365.898C378.893 365.898 377.474 366.133 376.25 366.602C375.026 367.044 373.997 367.695 373.164 368.555C372.357 369.388 371.732 370.404 371.289 371.602C370.846 372.799 370.586 374.141 370.508 375.625L368.359 375.781C368.359 373.125 368.62 370.664 369.141 368.398C369.661 366.133 370.443 364.141 371.484 362.422C372.552 360.703 373.88 359.362 375.469 358.398C377.083 357.435 378.945 356.953 381.055 356.953C381.628 356.953 382.24 357.005 382.891 357.109C383.568 357.214 384.076 357.331 384.414 357.461ZM408.164 400.781C405.039 400.781 402.214 400.273 399.688 399.258C397.188 398.216 395.052 396.771 393.281 394.922C391.536 393.073 390.195 390.898 389.258 388.398C388.32 385.898 387.852 383.203 387.852 380.312V378.75C387.852 375.443 388.333 372.448 389.297 369.766C390.26 367.083 391.602 364.792 393.32 362.891C395.039 360.964 397.07 359.492 399.414 358.477C401.758 357.461 404.297 356.953 407.031 356.953C410.052 356.953 412.695 357.461 414.961 358.477C417.227 359.492 419.102 360.924 420.586 362.773C422.096 364.596 423.216 366.771 423.945 369.297C424.701 371.823 425.078 374.609 425.078 377.656V381.68H392.422V374.922H415.781V374.18C415.729 372.487 415.391 370.898 414.766 369.414C414.167 367.93 413.242 366.732 411.992 365.82C410.742 364.909 409.076 364.453 406.992 364.453C405.43 364.453 404.036 364.792 402.812 365.469C401.615 366.12 400.612 367.07 399.805 368.32C398.997 369.57 398.372 371.081 397.93 372.852C397.513 374.596 397.305 376.562 397.305 378.75V380.312C397.305 382.161 397.552 383.88 398.047 385.469C398.568 387.031 399.323 388.398 400.312 389.57C401.302 390.742 402.5 391.667 403.906 392.344C405.312 392.995 406.914 393.32 408.711 393.32C410.977 393.32 412.995 392.865 414.766 391.953C416.536 391.042 418.073 389.753 419.375 388.086L424.336 392.891C423.424 394.219 422.24 395.495 420.781 396.719C419.323 397.917 417.539 398.893 415.43 399.648C413.346 400.404 410.924 400.781 408.164 400.781ZM474.805 343.125V400H465.078V343.125H474.805ZM492.656 343.125V350.938H447.383V343.125H492.656ZM491.953 379.336V378.438C491.953 375.391 492.396 372.565 493.281 369.961C494.167 367.331 495.443 365.052 497.109 363.125C498.802 361.172 500.859 359.661 503.281 358.594C505.729 357.5 508.49 356.953 511.562 356.953C514.661 356.953 517.422 357.5 519.844 358.594C522.292 359.661 524.362 361.172 526.055 363.125C527.747 365.052 529.036 367.331 529.922 369.961C530.807 372.565 531.25 375.391 531.25 378.438V379.336C531.25 382.383 530.807 385.208 529.922 387.812C529.036 390.417 527.747 392.695 526.055 394.648C524.362 396.576 522.305 398.086 519.883 399.18C517.461 400.247 514.714 400.781 511.641 400.781C508.542 400.781 505.768 400.247 503.32 399.18C500.898 398.086 498.841 396.576 497.148 394.648C495.456 392.695 494.167 390.417 493.281 387.812C492.396 385.208 491.953 382.383 491.953 379.336ZM501.367 378.438V379.336C501.367 381.237 501.562 383.034 501.953 384.727C502.344 386.419 502.956 387.904 503.789 389.18C504.622 390.456 505.69 391.458 506.992 392.188C508.294 392.917 509.844 393.281 511.641 393.281C513.385 393.281 514.896 392.917 516.172 392.188C517.474 391.458 518.542 390.456 519.375 389.18C520.208 387.904 520.82 386.419 521.211 384.727C521.628 383.034 521.836 381.237 521.836 379.336V378.438C521.836 376.562 521.628 374.792 521.211 373.125C520.82 371.432 520.195 369.935 519.336 368.633C518.503 367.331 517.435 366.315 516.133 365.586C514.857 364.831 513.333 364.453 511.562 364.453C509.792 364.453 508.255 364.831 506.953 365.586C505.677 366.315 504.622 367.331 503.789 368.633C502.956 369.935 502.344 371.432 501.953 373.125C501.562 374.792 501.367 376.562 501.367 378.438ZM597.578 366.875V374.648H567.383V366.875H597.578ZM569.805 343.125V400H560V343.125H569.805ZM605.117 343.125V400H595.352V343.125H605.117ZM634.492 400.781C631.367 400.781 628.542 400.273 626.016 399.258C623.516 398.216 621.38 396.771 619.609 394.922C617.865 393.073 616.523 390.898 615.586 388.398C614.648 385.898 614.18 383.203 614.18 380.312V378.75C614.18 375.443 614.661 372.448 615.625 369.766C616.589 367.083 617.93 364.792 619.648 362.891C621.367 360.964 623.398 359.492 625.742 358.477C628.086 357.461 630.625 356.953 633.359 356.953C636.38 356.953 639.023 357.461 641.289 358.477C643.555 359.492 645.43 360.924 646.914 362.773C648.424 364.596 649.544 366.771 650.273 369.297C651.029 371.823 651.406 374.609 651.406 377.656V381.68H618.75V374.922H642.109V374.18C642.057 372.487 641.719 370.898 641.094 369.414C640.495 367.93 639.57 366.732 638.32 365.82C637.07 364.909 635.404 364.453 633.32 364.453C631.758 364.453 630.365 364.792 629.141 365.469C627.943 366.12 626.94 367.07 626.133 368.32C625.326 369.57 624.701 371.081 624.258 372.852C623.841 374.596 623.633 376.562 623.633 378.75V380.312C623.633 382.161 623.88 383.88 624.375 385.469C624.896 387.031 625.651 388.398 626.641 389.57C627.63 390.742 628.828 391.667 630.234 392.344C631.641 392.995 633.242 393.32 635.039 393.32C637.305 393.32 639.323 392.865 641.094 391.953C642.865 391.042 644.401 389.753 645.703 388.086L650.664 392.891C649.753 394.219 648.568 395.495 647.109 396.719C645.651 397.917 643.867 398.893 641.758 399.648C639.674 400.404 637.253 400.781 634.492 400.781ZM668.828 340V400H659.375V340H668.828ZM688.594 365.859V416.25H679.18V357.734H687.852L688.594 365.859ZM716.133 378.477V379.297C716.133 382.37 715.768 385.221 715.039 387.852C714.336 390.456 713.281 392.734 711.875 394.688C710.495 396.615 708.789 398.112 706.758 399.18C704.727 400.247 702.383 400.781 699.727 400.781C697.096 400.781 694.792 400.299 692.812 399.336C690.859 398.346 689.206 396.953 687.852 395.156C686.497 393.359 685.404 391.25 684.57 388.828C683.763 386.38 683.19 383.698 682.852 380.781V377.617C683.19 374.518 683.763 371.706 684.57 369.18C685.404 366.654 686.497 364.479 687.852 362.656C689.206 360.833 690.859 359.427 692.812 358.438C694.766 357.448 697.044 356.953 699.648 356.953C702.305 356.953 704.661 357.474 706.719 358.516C708.776 359.531 710.508 360.99 711.914 362.891C713.32 364.766 714.375 367.031 715.078 369.688C715.781 372.318 716.133 375.247 716.133 378.477ZM706.719 379.297V378.477C706.719 376.523 706.536 374.714 706.172 373.047C705.807 371.354 705.234 369.87 704.453 368.594C703.672 367.318 702.669 366.328 701.445 365.625C700.247 364.896 698.802 364.531 697.109 364.531C695.443 364.531 694.01 364.818 692.812 365.391C691.615 365.938 690.612 366.706 689.805 367.695C688.997 368.685 688.372 369.844 687.93 371.172C687.487 372.474 687.174 373.893 686.992 375.43V383.008C687.305 384.883 687.839 386.602 688.594 388.164C689.349 389.727 690.417 390.977 691.797 391.914C693.203 392.826 695 393.281 697.188 393.281C698.88 393.281 700.326 392.917 701.523 392.188C702.721 391.458 703.698 390.456 704.453 389.18C705.234 387.878 705.807 386.38 706.172 384.688C706.536 382.995 706.719 381.198 706.719 379.297ZM750.43 343.125L763.633 370.273L776.836 343.125H787.695L768.555 379.062V400H758.672V379.062L739.531 343.125H750.43ZM788.594 379.336V378.438C788.594 375.391 789.036 372.565 789.922 369.961C790.807 367.331 792.083 365.052 793.75 363.125C795.443 361.172 797.5 359.661 799.922 358.594C802.37 357.5 805.13 356.953 808.203 356.953C811.302 356.953 814.062 357.5 816.484 358.594C818.932 359.661 821.003 361.172 822.695 363.125C824.388 365.052 825.677 367.331 826.562 369.961C827.448 372.565 827.891 375.391 827.891 378.438V379.336C827.891 382.383 827.448 385.208 826.562 387.812C825.677 390.417 824.388 392.695 822.695 394.648C821.003 396.576 818.945 398.086 816.523 399.18C814.102 400.247 811.354 400.781 808.281 400.781C805.182 400.781 802.409 400.247 799.961 399.18C797.539 398.086 795.482 396.576 793.789 394.648C792.096 392.695 790.807 390.417 789.922 387.812C789.036 385.208 788.594 382.383 788.594 379.336ZM798.008 378.438V379.336C798.008 381.237 798.203 383.034 798.594 384.727C798.984 386.419 799.596 387.904 800.43 389.18C801.263 390.456 802.331 391.458 803.633 392.188C804.935 392.917 806.484 393.281 808.281 393.281C810.026 393.281 811.536 392.917 812.812 392.188C814.115 391.458 815.182 390.456 816.016 389.18C816.849 387.904 817.461 386.419 817.852 384.727C818.268 383.034 818.477 381.237 818.477 379.336V378.438C818.477 376.562 818.268 374.792 817.852 373.125C817.461 371.432 816.836 369.935 815.977 368.633C815.143 367.331 814.076 366.315 812.773 365.586C811.497 364.831 809.974 364.453 808.203 364.453C806.432 364.453 804.896 364.831 803.594 365.586C802.318 366.315 801.263 367.331 800.43 368.633C799.596 369.935 798.984 371.432 798.594 373.125C798.203 374.792 798.008 376.562 798.008 378.438ZM861.211 390.039V357.734H870.664V400H861.758L861.211 390.039ZM862.539 381.25L865.703 381.172C865.703 384.01 865.391 386.628 864.766 389.023C864.141 391.393 863.177 393.464 861.875 395.234C860.573 396.979 858.906 398.346 856.875 399.336C854.844 400.299 852.409 400.781 849.57 400.781C847.513 400.781 845.625 400.482 843.906 399.883C842.188 399.284 840.703 398.359 839.453 397.109C838.229 395.859 837.279 394.232 836.602 392.227C835.924 390.221 835.586 387.826 835.586 385.039V357.734H845V385.117C845 386.654 845.182 387.943 845.547 388.984C845.911 390 846.406 390.82 847.031 391.445C847.656 392.07 848.385 392.513 849.219 392.773C850.052 393.034 850.938 393.164 851.875 393.164C854.557 393.164 856.667 392.643 858.203 391.602C859.766 390.534 860.872 389.102 861.523 387.305C862.201 385.508 862.539 383.49 862.539 381.25ZM936.562 369.336L943.789 369.297C943.789 371.536 943.477 373.607 942.852 375.508C942.227 377.383 941.341 379.01 940.195 380.391C939.076 381.771 937.721 382.852 936.133 383.633C934.57 384.388 932.852 384.766 930.977 384.766C928.789 384.766 926.849 384.336 925.156 383.477C923.49 382.591 921.693 381.263 919.766 379.492C918.568 378.346 917.448 377.474 916.406 376.875C915.365 376.25 914.245 375.938 913.047 375.938C911.875 375.938 910.872 376.25 910.039 376.875C909.206 377.474 908.555 378.333 908.086 379.453C907.617 380.573 907.383 381.875 907.383 383.359H899.961C899.961 381.094 900.273 379.036 900.898 377.188C901.523 375.312 902.396 373.711 903.516 372.383C904.661 371.029 906.016 369.987 907.578 369.258C909.141 368.529 910.859 368.164 912.734 368.164C914.922 368.164 916.888 368.62 918.633 369.531C920.404 370.443 922.201 371.745 924.023 373.438C925.273 374.635 926.406 375.534 927.422 376.133C928.438 376.732 929.518 377.031 930.664 377.031C931.836 377.031 932.865 376.706 933.75 376.055C934.635 375.378 935.326 374.453 935.82 373.281C936.315 372.109 936.562 370.794 936.562 369.336Z" fill="#0E6E9B"/>
</svg>
