<svg width="80" height="78" viewBox="0 0 80 78" fill="none" xmlns="http://www.w3.org/2000/svg">
<g filter="url(#filter0_d_80_563)">
<g clip-path="url(#clip0_80_563)">
<rect x="14" y="12" width="52" height="50" rx="10" fill="url(#paint0_linear_80_563)"/>
<path d="M18.48 47.92C22.4 39.0933 27.1733 30.9333 32.8 23.44L36.88 27.6C34.16 31.36 31.9333 34.8 30.2 37.92C27.1333 43.4667 24.76 48.2133 23.08 52.16L18.48 47.92ZM54.1341 27.52C51.2807 29.04 48.6941 31.0667 46.3741 33.6C46.6674 34.5333 47.0941 35.5333 47.6541 36.6C48.2141 37.64 48.8007 38.76 49.4141 39.96C51.0407 43 52.2007 45.6 52.8941 47.76L49.5341 53.12C44.5474 51.8133 40.1207 49.9867 36.2541 47.64C35.0541 46.8933 33.8674 46.12 32.6941 45.32L35.3741 40.44C39.4274 43.24 43.1341 45.2933 46.4941 46.6C45.8541 45.0267 44.8941 43.1333 43.6141 40.92C42.3341 38.68 41.4007 37 40.8141 35.88C40.2541 34.7333 39.8141 33.6 39.4941 32.48C41.1474 30.4267 43.2541 28.4 45.8141 26.4C48.1607 24.56 50.4007 23.1333 52.5341 22.12L60.2541 27.28C59.7474 29.5467 58.5874 32.36 56.7741 35.72C56.3207 36.5733 55.9207 37.2533 55.5741 37.76L50.7741 35C51.8407 33.2933 52.9607 30.8 54.1341 27.52Z" fill="url(#paint1_linear_80_563)"/>
<g filter="url(#filter1_d_80_563)">
<circle cx="38.5" cy="19.5" r="4.5" fill="url(#paint2_linear_80_563)"/>
</g>
</g>
</g>
<defs>
<filter id="filter0_d_80_563" x="0" y="0" width="80" height="78" filterUnits="userSpaceOnUse" color-interpolation-filters="sRGB">
<feFlood flood-opacity="0" result="BackgroundImageFix"/>
<feColorMatrix in="SourceAlpha" type="matrix" values="0 0 0 0 0 0 0 0 0 0 0 0 0 0 0 0 0 0 127 0" result="hardAlpha"/>
<feOffset dy="2"/>
<feGaussianBlur stdDeviation="7"/>
<feComposite in2="hardAlpha" operator="out"/>
<feColorMatrix type="matrix" values="0 0 0 0 0 0 0 0 0 0 0 0 0 0 0 0 0 0 0.17 0"/>
<feBlend mode="normal" in2="BackgroundImageFix" result="effect1_dropShadow_80_563"/>
<feBlend mode="normal" in="SourceGraphic" in2="effect1_dropShadow_80_563" result="shape"/>
</filter>
<filter id="filter1_d_80_563" x="27" y="8" width="23" height="23" filterUnits="userSpaceOnUse" color-interpolation-filters="sRGB">
<feFlood flood-opacity="0" result="BackgroundImageFix"/>
<feColorMatrix in="SourceAlpha" type="matrix" values="0 0 0 0 0 0 0 0 0 0 0 0 0 0 0 0 0 0 127 0" result="hardAlpha"/>
<feOffset/>
<feGaussianBlur stdDeviation="3.5"/>
<feComposite in2="hardAlpha" operator="out"/>
<feColorMatrix type="matrix" values="0 0 0 0 0.54902 0 0 0 0 0.933333 0 0 0 0 0.466667 0 0 0 1 0"/>
<feBlend mode="normal" in2="BackgroundImageFix" result="effect1_dropShadow_80_563"/>
<feBlend mode="normal" in="SourceGraphic" in2="effect1_dropShadow_80_563" result="shape"/>
</filter>
<linearGradient id="paint0_linear_80_563" x1="66" y1="12" x2="14" y2="62" gradientUnits="userSpaceOnUse">
<stop stop-color="#0CBC8B"/>
<stop offset="1" stop-color="#0C68BC"/>
</linearGradient>
<linearGradient id="paint1_linear_80_563" x1="40.5" y1="9" x2="40.5" y2="66" gradientUnits="userSpaceOnUse">
<stop stop-color="#EAFFB3"/>
<stop offset="1" stop-color="#99FF88"/>
</linearGradient>
<linearGradient id="paint2_linear_80_563" x1="38.5" y1="15" x2="38.5" y2="24" gradientUnits="userSpaceOnUse">
<stop stop-color="#A8EE77"/>
<stop offset="1" stop-color="#80EE77"/>
</linearGradient>
<clipPath id="clip0_80_563">
<rect x="14" y="12" width="52" height="50" rx="10" fill="white"/>
</clipPath>
</defs>
</svg>
