<svg width="96" height="97" viewBox="0 0 96 97" fill="none" xmlns="http://www.w3.org/2000/svg">
<g filter="url(#filter0_d_93_590)">
<rect x="9" y="13" width="78" height="71" rx="4" fill="#70B7DD" shape-rendering="crispEdges"/>
<g filter="url(#filter1_d_93_590)">
<rect x="14" y="5" width="73" height="73" rx="4" fill="#0E6E9B"/>
<path d="M21.144 43.0967L31.791 46.8223V51.7612L16.8545 45.5576V41.9858L21.144 43.0967ZM31.791 40.0718L21.144 43.8657L16.8545 44.9424V41.3535L31.791 35.1499V40.0718ZM41.8228 29.1172V54H36.2686V29.1172H41.8228ZM59.2202 47.4375C59.2202 47.016 59.1576 46.64 59.0322 46.3096C58.9069 45.9678 58.679 45.6545 58.3486 45.3696C58.0182 45.0848 57.5511 44.8 56.9473 44.5151C56.3434 44.2189 55.5516 43.917 54.5718 43.6094C53.4552 43.2448 52.39 42.8346 51.376 42.3789C50.3734 41.9118 49.479 41.3706 48.6929 40.7554C47.9067 40.1401 47.2858 39.4224 46.8301 38.6021C46.3857 37.7817 46.1636 36.8247 46.1636 35.731C46.1636 34.6714 46.3971 33.7144 46.8643 32.8599C47.3314 32.0054 47.9865 31.2762 48.8296 30.6724C49.6727 30.0571 50.6639 29.59 51.8032 29.271C52.9425 28.9406 54.1958 28.7754 55.563 28.7754C57.3859 28.7754 58.9867 29.1001 60.3652 29.7495C61.7552 30.3875 62.8376 31.2876 63.6123 32.4497C64.387 33.6004 64.7744 34.9391 64.7744 36.4658H59.2373C59.2373 35.7936 59.0949 35.2012 58.8101 34.6885C58.5366 34.1644 58.1151 33.7542 57.5454 33.458C56.9871 33.1618 56.2865 33.0137 55.4434 33.0137C54.623 33.0137 53.9338 33.139 53.3755 33.3896C52.8286 33.6289 52.4128 33.9593 52.1279 34.3809C51.8545 34.8024 51.7178 35.2638 51.7178 35.7651C51.7178 36.1639 51.8203 36.5285 52.0254 36.8589C52.2419 37.1779 52.5495 37.4798 52.9482 37.7646C53.3584 38.0381 53.8597 38.3001 54.4521 38.5508C55.0446 38.8014 55.7225 39.0407 56.4858 39.2686C57.8188 39.6901 58.998 40.1572 60.0234 40.6699C61.0602 41.1826 61.9318 41.7637 62.6382 42.4131C63.3446 43.0625 63.8743 43.7974 64.2275 44.6177C64.5921 45.438 64.7744 46.3665 64.7744 47.4033C64.7744 48.5085 64.5579 49.4883 64.125 50.3428C63.7035 51.1973 63.0882 51.9264 62.2793 52.5303C61.4818 53.1227 60.5247 53.5728 59.4082 53.8804C58.2917 54.188 57.0441 54.3418 55.6655 54.3418C54.4123 54.3418 53.1761 54.1823 51.957 53.8633C50.738 53.5329 49.6328 53.0316 48.6416 52.3594C47.6618 51.6872 46.8757 50.8327 46.2832 49.7959C45.7021 48.7477 45.4116 47.5059 45.4116 46.0703H50.9829C50.9829 46.8223 51.0911 47.4603 51.3076 47.9844C51.5241 48.4971 51.8317 48.9129 52.2305 49.2319C52.6406 49.5509 53.1362 49.7788 53.7173 49.9155C54.2983 50.0522 54.9478 50.1206 55.6655 50.1206C56.4972 50.1206 57.1694 50.0067 57.6821 49.7788C58.2062 49.5396 58.5936 49.2148 58.8442 48.8047C59.0949 48.3945 59.2202 47.9388 59.2202 47.4375ZM78.6343 43.7803L67.9702 40.0718V35.1499L82.9409 41.3535V44.9595L78.6343 43.7803ZM67.9702 46.8735L78.6514 43.0625L82.9409 41.9858V45.5747L67.9702 51.7783V46.8735Z" fill="white"/>
</g>
</g>
<defs>
<filter id="filter0_d_93_590" x="0" y="0" width="96" height="97" filterUnits="userSpaceOnUse" color-interpolation-filters="sRGB">
<feFlood flood-opacity="0" result="BackgroundImageFix"/>
<feColorMatrix in="SourceAlpha" type="matrix" values="0 0 0 0 0 0 0 0 0 0 0 0 0 0 0 0 0 0 127 0" result="hardAlpha"/>
<feOffset dy="4"/>
<feGaussianBlur stdDeviation="4.5"/>
<feComposite in2="hardAlpha" operator="out"/>
<feColorMatrix type="matrix" values="0 0 0 0 0.14902 0 0 0 0 0.14902 0 0 0 0 0.14902 0 0 0 0.15 0"/>
<feBlend mode="normal" in2="BackgroundImageFix" result="effect1_dropShadow_93_590"/>
<feBlend mode="normal" in="SourceGraphic" in2="effect1_dropShadow_93_590" result="shape"/>
</filter>
<filter id="filter1_d_93_590" x="7" y="0" width="87" height="87" filterUnits="userSpaceOnUse" color-interpolation-filters="sRGB">
<feFlood flood-opacity="0" result="BackgroundImageFix"/>
<feColorMatrix in="SourceAlpha" type="matrix" values="0 0 0 0 0 0 0 0 0 0 0 0 0 0 0 0 0 0 127 0" result="hardAlpha"/>
<feOffset dy="2"/>
<feGaussianBlur stdDeviation="3.5"/>
<feComposite in2="hardAlpha" operator="out"/>
<feColorMatrix type="matrix" values="0 0 0 0 0 0 0 0 0 0 0 0 0 0 0 0 0 0 0.15 0"/>
<feBlend mode="normal" in2="BackgroundImageFix" result="effect1_dropShadow_93_590"/>
<feBlend mode="normal" in="SourceGraphic" in2="effect1_dropShadow_93_590" result="shape"/>
</filter>
</defs>
</svg>
